<svg xmlns="http://www.w3.org/2000/svg" viewBox="0 0 100 100" width="500px" height="500px">
  <circle cx="78" cy="14" r="1" fill="#f1bc19" />
  <circle cx="50" cy="50" r="38" fill="#fce0a2" />
  <circle cx="84" cy="16" r="4" fill="#f1bc19" />
  <circle cx="14" cy="26" r="2" fill="#ee3e54" />
  <circle cx="78" cy="77" r="2" fill="#fbcd59" />
  <circle cx="17" cy="78" r="4" fill="#fbcd59" />
  <circle cx="24" cy="83" r="2" fill="#ee3e54" />
  <circle cx="66.483" cy="78.517" r="2.483" fill="#fff" />
  <circle cx="16" cy="48" r="1" fill="#fff" />
  <circle cx="86" cy="31" r="1" fill="#f1bc19" />
  <circle cx="80" cy="66" r="2" fill="#fff" />
  <path fill="#fdfcef" d="M35.5,67c-4.411,0-8-3.589-8-8V46h44v13c0,4.411-3.589,8-8,8H35.5z" />
  <path fill="#472b29" d="M71.1,46.4V59c0,4.191-3.409,7.6-7.6,7.6h-28c-4.191,0-7.6-3.409-7.6-7.6V46.4H71.1 M72.5,45h-46v14 c0,4.971,4.029,9,9,9h28c4.971,0,9-4.029,9-9V45L72.5,45z" />
  <path fill="#f45834" d="M50,46.345c-16.97,0-17.969,8.2-22.959,11.2c-2.372,1.426-5.714-0.001-5.791-4 c-0.25-13,10.781-21.8,28.75-21.8s29,8.8,28.75,21.8c-0.077,3.999-3.418,5.426-5.791,4C67.969,54.545,66.97,46.345,50,46.345z" />
  <path fill="#f8ab97" d="M63,33.545l-7-1.558c-8,3.558-4,14.558-4,14.558l6.084,0.524C58.084,47.069,54.5,35.86,63,33.545z" />
  <path fill="#472b29" d="M51.53,46.715c-0.042-0.114-4.063-11.481,4.267-15.186l0.406,0.914 c-7.487,3.33-3.771,13.825-3.733,13.93L51.53,46.715z" />
  <path fill="#472b29" d="M57.608,47.221c-0.08-0.25-1.937-6.187,0.38-10.451c1.006-1.853,2.648-3.101,4.88-3.708l0.263,0.965 c-1.958,0.534-3.393,1.617-4.265,3.221c-2.114,3.892-0.324,9.611-0.306,9.668L57.608,47.221z" />
  <path fill="#f8ab97" d="M48,31.555l-8,1.243c-8.098,6.029-0.755,14.844-0.755,14.844L45,46.607 C45,46.607,39,36.011,48,31.555z" />
  <path fill="#f8ab97" d="M31.866,35.686l-6.16,4.666C21,49.045,30.63,53.933,30.63,53.933l3-3 C33.63,50.933,24.411,43.083,31.866,35.686z" />
  <path fill="#f8ab97" d="M71.821,38.83c-8.315,2.985-8.193,10.641-8.193,10.641L68.5,53.3c0,0-0.5-8.3,7.924-8.62 C74.347,40.859,71.821,38.83,71.821,38.83z" />
  <path fill="#472b29" d="M64.127,49.471l-1,0c0-0.087,0.1-8.774,8.742-11.123l0.262,0.965 C64.238,41.458,64.128,49.145,64.127,49.471z" />
  <path fill="#472b29" d="M68.004,53.562c-0.018-0.144-0.415-3.547,1.768-6.26c1.449-1.801,3.672-2.851,6.606-3.121 l0.092,0.996c-2.65,0.244-4.64,1.167-5.912,2.743c-1.918,2.376-1.565,5.487-1.562,5.518L68.004,53.562z" />
  <path fill="#472b29" d="M44.565,46.854c-0.127-0.225-3.097-5.554-1.613-10.388c0.713-2.323,2.337-4.126,4.826-5.358 l0.443,0.896c-2.231,1.104-3.682,2.703-4.312,4.751c-1.359,4.418,1.497,9.555,1.525,9.606L44.565,46.854z" />
  <path fill="#472b29" d="M38.86,47.962c-0.15-0.18-3.672-4.472-3.105-9.247c0.292-2.46,1.62-4.586,3.946-6.317l0.597,0.802 c-2.095,1.56-3.29,3.454-3.549,5.628c-0.519,4.345,2.846,8.454,2.88,8.495L38.86,47.962z" />
  <path fill="#472b29" d="M33.306,51.314c-0.19-0.162-4.655-4.02-4.844-9.002c-0.096-2.527,0.931-4.875,3.052-6.98l0.704,0.71 c-1.915,1.899-2.842,3.997-2.757,6.232c0.173,4.549,4.45,8.242,4.494,8.279L33.306,51.314z" />
  <path fill="#472b29" d="M30.408,54.381c-0.183-0.091-4.502-2.279-5.846-6.52c-0.75-2.368-0.414-4.891,0.999-7.499 l0.879,0.477c-1.276,2.358-1.588,4.617-0.926,6.714c1.21,3.834,5.298,5.913,5.34,5.933L30.408,54.381z" />
  <path fill="#472b29" d="M36,57.044c-0.184,0-0.36-0.101-0.448-0.276c-0.124-0.247-0.023-0.547,0.224-0.671l2-1 c0.246-0.123,0.547-0.024,0.671,0.224c0.124,0.247,0.023,0.547-0.224,0.671l-2,1C36.152,57.027,36.076,57.044,36,57.044z" />
  <path fill="#472b29" d="M64,58.044c-0.075,0-0.151-0.017-0.223-0.053c-0.247-0.124-0.347-0.424-0.224-0.671l1-2 c0.124-0.248,0.424-0.347,0.671-0.224c0.247,0.124,0.347,0.424,0.224,0.671l-1,2C64.359,57.943,64.183,58.044,64,58.044z" />
  <path fill="#472b29" d="M59,54.044c-0.276,0-0.5-0.224-0.5-0.5v-2c0-0.276,0.224-0.5,0.5-0.5s0.5,0.224,0.5,0.5v2 C59.5,53.821,59.276,54.044,59,54.044z" />
  <path fill="#472b29" d="M49,64.044c-0.128,0-0.256-0.049-0.354-0.146c-0.195-0.195-0.195-0.512,0-0.707l1-1 c0.195-0.195,0.512-0.195,0.707,0s0.195,0.512,0,0.707l-1,1C49.256,63.996,49.128,64.044,49,64.044z" />
  <path fill="#472b29" d="M61.623,63.3c-0.214,0-0.413-0.139-0.479-0.354c-0.08-0.264,0.068-0.544,0.333-0.625l1.724-0.525 c0.264-0.08,0.543,0.069,0.625,0.333c0.08,0.264-0.068,0.544-0.333,0.625l-1.724,0.525C61.72,63.293,61.671,63.3,61.623,63.3z" />
  <path fill="#472b29" d="M53,55.044c-0.075,0-0.151-0.017-0.223-0.053l-2-1c-0.247-0.124-0.347-0.424-0.224-0.671 s0.424-0.347,0.671-0.224l2,1c0.247,0.124,0.347,0.424,0.224,0.671C53.359,54.943,53.183,55.044,53,55.044z" />
  <path fill="#472b29" d="M36,63.044h-2c-0.276,0-0.5-0.224-0.5-0.5s0.224-0.5,0.5-0.5h2c0.276,0,0.5,0.224,0.5,0.5 S36.276,63.044,36,63.044z" />
  <path fill="#472b29" d="M44,53.044c-0.128,0-0.256-0.049-0.354-0.146l-1-1c-0.195-0.195-0.195-0.512,0-0.707 s0.512-0.195,0.707,0l1,1c0.195,0.195,0.195,0.512,0,0.707C44.256,52.996,44.128,53.044,44,53.044z" />
  <path fill="#472b29" d="M55.622,60.294c-0.095,0-0.191-0.027-0.277-0.084c-0.23-0.153-0.292-0.463-0.139-0.693l1-1.5 c0.153-0.23,0.462-0.292,0.693-0.139c0.23,0.153,0.292,0.463,0.139,0.693l-1,1.5C55.942,60.216,55.784,60.294,55.622,60.294z" />
  <path fill="#472b29" d="M43,60.044c-0.075,0-0.151-0.017-0.223-0.053c-0.247-0.124-0.347-0.424-0.224-0.671l1-2 c0.124-0.248,0.424-0.347,0.671-0.224s0.347,0.424,0.224,0.671l-1,2C43.359,59.943,43.183,60.044,43,60.044z" />
  <path fill="#472b29" d="M25.19,58.78c-0.633,0-1.253-0.154-1.813-0.463c-1.468-0.812-2.334-2.547-2.377-4.759 c-0.109-5.683,1.816-10.708,5.568-14.534c5.121-5.22,13.224-7.979,23.432-7.979c10.226,0,18.334,2.756,23.449,7.97 c3.74,3.813,5.659,8.827,5.551,14.499c-0.043,2.228-0.918,3.976-2.399,4.795c-1.217,0.673-2.713,0.61-4.002-0.164 c-1.44-0.866-2.552-2.117-3.728-3.441c-3.03-3.412-6.8-7.658-18.871-7.658c-12.07,0-15.841,4.246-18.871,7.658 c-1.176,1.325-2.288,2.576-3.728,3.442C26.698,58.567,25.936,58.78,25.19,58.78z M50,32.445c-9.824,0-17.581,2.614-22.432,7.56 c-3.482,3.55-5.27,8.228-5.168,13.526c0.033,1.699,0.636,2.997,1.655,3.561c0.788,0.435,1.744,0.382,2.625-0.147 c1.257-0.755,2.251-1.875,3.402-3.171C33.298,50.152,37.3,45.645,50,45.645s16.702,4.507,19.918,8.129 c1.151,1.296,2.146,2.416,3.401,3.171c0.869,0.522,1.817,0.574,2.604,0.139c1.033-0.571,1.644-1.882,1.677-3.597 c0.102-5.287-1.679-9.953-5.15-13.491C67.604,35.056,59.841,32.445,50,32.445z" />
</svg>