<svg xmlns="http://www.w3.org/2000/svg" viewBox="0 0 48 48" width="500px" height="500px">
  <radialGradient id="GS~5EAtv4efBzw6akufI6a" cx="20.883" cy="13.125" r="23.808" gradientUnits="userSpaceOnUse">
    <stop offset=".275" stop-color="#fff1d9" />
    <stop offset=".609" stop-color="#edd5b4" />
    <stop offset="1" stop-color="#d9b88d" />
  </radialGradient>
  <path fill="url(#GS~5EAtv4efBzw6akufI6a)" d="M7.939,22.679c-1.716,3.422-2.285,7.118-0.366,10.953s7.895,6.148,11.337,3.651 c4.099-2.973,19.974-9.909,20.331-14.604c0.522-6.855,2.247-11.44-4.059-11.257C28.878,11.605,10.864,16.847,7.939,22.679z" />
  <linearGradient id="GS~5EAtv4efBzw6akufI6b" x1="13.311" x2="31.876" y1="34.194" y2="5.606" gradientUnits="userSpaceOnUse">
    <stop offset="0" stop-color="#e67e23" />
    <stop offset=".064" stop-color="#e6832e" />
    <stop offset=".177" stop-color="#e78f4c" />
    <stop offset=".326" stop-color="#e8a37c" />
    <stop offset=".339" stop-color="#e8a581" />
    <stop offset=".59" stop-color="#e68545" />
    <stop offset=".661" stop-color="#e68b50" />
    <stop offset=".787" stop-color="#e79b6e" />
    <stop offset=".856" stop-color="#e8a581" />
    <stop offset=".959" stop-color="#e77d3e" />
    <stop offset="1" stop-color="#e66d23" />
  </linearGradient>
  <path fill="url(#GS~5EAtv4efBzw6akufI6b)" d="M4.121,25.46c0.612,2.949,3.229,6.85,10.154,6.415s0.424-6.636,12.995-12.562 s11.899-1.531,12.866-0.851c0.559-0.181,4.31-3.955-1.106-8.145S26.819,6.332,20.077,9.139C13.35,11.938,2.847,19.32,4.121,25.46z" />
  <linearGradient id="GS~5EAtv4efBzw6akufI6c" x1="25" x2="42" y1="35.843" y2="35.843" gradientUnits="userSpaceOnUse">
    <stop offset="0" stop-color="#14120d" />
    <stop offset=".065" stop-color="#201d15" />
    <stop offset=".231" stop-color="#3a3425" />
    <stop offset=".38" stop-color="#4a422f" />
    <stop offset=".496" stop-color="#504732" />
    <stop offset=".697" stop-color="#3b3425" />
    <stop offset="1" stop-color="#14120d" />
  </linearGradient>
  <path fill="url(#GS~5EAtv4efBzw6akufI6c)" d="M25,29.708v6.694c0,3.079,3.806,5.575,8.5,5.575s8.5-2.496,8.5-5.575v-6.694H25z" />
  <ellipse cx="33.5" cy="29.5" fill="#1e1b13" rx="7.882" ry="5.1" />
  <path fill="#7d714f" d="M33.5,26c3.72,0,6.5,1.848,6.5,3.5S37.22,33,33.5,33S27,31.152,27,29.5S29.78,26,33.5,26 M33.5,24 c-4.694,0-8.5,2.462-8.5,5.5s3.806,5.5,8.5,5.5s8.5-2.462,8.5-5.5S38.194,24,33.5,24L33.5,24z" />
  <radialGradient id="GS~5EAtv4efBzw6akufI6d" cx="33.609" cy="29.869" r="6.76" gradientTransform="matrix(.9655 0 0 .648 1.05 9.98)" gradientUnits="userSpaceOnUse">
    <stop offset=".725" stop-color="#fff3d9" />
    <stop offset=".831" stop-color="#f4ead4" />
    <stop offset="1" stop-color="#d9d3c7" />
  </radialGradient>
  <ellipse cx="33.5" cy="29.334" fill="url(#GS~5EAtv4efBzw6akufI6d)" rx="7.5" ry="4.666" />
  <radialGradient id="GS~5EAtv4efBzw6akufI6e" cx="34.285" cy="29.595" r="3.386" gradientTransform="matrix(.9463 0 0 .811 1.69 5.028)" gradientUnits="userSpaceOnUse">
    <stop offset=".167" stop-color="#ff8a4a" />
    <stop offset=".347" stop-color="#f4883f" />
    <stop offset=".666" stop-color="#d68123" />
    <stop offset="1" stop-color="#b07900" />
  </radialGradient>
  <path fill="url(#GS~5EAtv4efBzw6akufI6e)" d="M38,29.505c0,0.374-0.17,0.728-0.437,1.05c-0.073,0.083-0.146,0.156-0.23,0.229 c-1.443,0.301-5.082,0.852-3.833-1.549c1.067-2.048-1.783-1.746-3.226-1.476C31.086,27.291,32.226,27,33.5,27 C35.974,27,38,28.123,38,29.505z" />
  <radialGradient id="GS~5EAtv4efBzw6akufI6f" cx="31.752" cy="29.342" r="4.989" gradientTransform="matrix(.9463 0 0 .811 1.69 5.028)" gradientUnits="userSpaceOnUse">
    <stop offset=".009" stop-color="#3dff52" />
    <stop offset=".192" stop-color="#48f649" />
    <stop offset=".515" stop-color="#66dd2f" />
    <stop offset=".939" stop-color="#96b606" />
    <stop offset="1" stop-color="#9eb000" />
  </radialGradient>
  <path fill="url(#GS~5EAtv4efBzw6akufI6f)" d="M37.333,30.784C36.544,31.511,35.125,32,33.5,32c-2.487,0-4.5-1.123-4.5-2.495 c0-0.551,0.315-1.05,0.849-1.455c0.121-0.104,0.267-0.198,0.425-0.291c1.443-0.27,4.294-0.572,3.226,1.476 C32.251,31.636,35.889,31.085,37.333,30.784z" />
  <radialGradient id="GS~5EAtv4efBzw6akufI6g" cx="22.895" cy="18.583" r="22.188" gradientTransform="matrix(.9051 -.4161 .1692 .3716 -.886 21.205)" gradientUnits="userSpaceOnUse">
    <stop offset="0" stop-color="#d72525" stop-opacity="0" />
    <stop offset=".279" stop-color="#d62825" stop-opacity=".297" />
    <stop offset=".499" stop-color="#d23224" stop-opacity=".532" />
    <stop offset=".7" stop-color="#cb4324" stop-opacity=".745" />
    <stop offset=".887" stop-color="#c25a22" stop-opacity=".945" />
    <stop offset=".939" stop-color="#bf6222" />
  </radialGradient>
  <path fill="url(#GS~5EAtv4efBzw6akufI6g)" d="M4.121,25.44c0.612,2.949,3.229,6.85,10.154,6.415 c6.924-0.435,0.424-6.636,12.995-12.562s11.61-1.432,12.577-0.752c1.008-0.216,4.598-4.054-0.817-8.244S26.819,6.313,20.077,9.119 C13.35,11.918,2.847,19.3,4.121,25.44z" opacity=".65" />
  <path fill="#f5a76e" d="M20.259,24.49c0,0,0,0,0,0.01c-0.239,0.31-0.438,0.62-0.617,0.92 c-4.081-0.56-9.386-0.66-15.329,0.76c-0.08-0.25-0.139-0.5-0.189-0.74c-0.02-0.08-0.03-0.15-0.04-0.23 C10.405,23.69,16.019,23.86,20.259,24.49z" opacity=".7" />
  <path fill="#f5a76e" d="M26.57,19.6c-0.43,0.21-0.83,0.42-1.21,0.63c-5.01-1.66-11.46-2.73-18.95-1.59 c0.32-0.39,0.66-0.78,1.02-1.16C15.05,16.54,21.57,17.8,26.57,19.6z" opacity=".7" />
  <path fill="#f5a76e" d="M33.01,16.93c-0.39,0.12-0.8,0.26-1.25,0.42c-4.19-2.45-9.73-4.86-16.39-5.91 c0.46-0.28,0.92-0.54,1.38-0.78C23.4,11.89,28.9,14.43,33.01,16.93z" opacity=".7" />
  <path fill="#f5a76e" d="M41.43,16.22c-0.11,0.35-0.27,0.67-0.44,0.95c-3.49-3.37-8.73-7.24-15.96-9.64 c0.69-0.14,1.38-0.25,2.06-0.33C33.43,9.61,38.15,13.09,41.43,16.22z" opacity=".7" />
  <linearGradient id="GS~5EAtv4efBzw6akufI6h" x1="13.567" x2="30.816" y1="34.453" y2="7.893" gradientUnits="userSpaceOnUse">
    <stop offset=".077" stop-color="#ad3603" />
    <stop offset=".59" stop-color="#c7440c" />
    <stop offset=".802" stop-color="#bc3e08" />
    <stop offset="1" stop-color="#ad3603" />
  </linearGradient>
  <path fill="url(#GS~5EAtv4efBzw6akufI6h)" d="M6.179,29.323c2.084,2.265,9.142,6.179,11.309,1.552c2.24-4.783,6.147-9.372,12.182-11.828 c5.456-2.221,7.522-3.255,8.723-1.214s3.01-0.162,3.122-1.894s-2.746-4.723-13.865,0.644c-9.581,4.625-9.618,7.556-12.65,11.833 c-2.723,3.843-10.008-1.667-10.493-2.875c-0.485-1.208-0.487-1.708-0.487-1.708S3.649,26.574,6.179,29.323z" />
  <radialGradient id="GS~5EAtv4efBzw6akufI6i" cx="29.383" cy="23.822" r="7.643" gradientTransform="matrix(-.5032 -.8642 1.9204 -1.1182 -1.577 75.851)" gradientUnits="userSpaceOnUse">
    <stop offset="0" stop-color="#ad4d03" />
    <stop offset=".486" stop-color="#ae4f05" />
    <stop offset=".661" stop-color="#b0550c" />
    <stop offset=".786" stop-color="#b45f17" />
    <stop offset=".887" stop-color="#ba6f28" />
    <stop offset=".972" stop-color="#c1823e" />
    <stop offset="1" stop-color="#c48a47" />
  </radialGradient>
  <path fill="url(#GS~5EAtv4efBzw6akufI6i)" d="M6.179,29.341c2.084,2.265,9.352,6.272,11.309,1.552 c2.1-5.066,6.513-9.61,12.667-12.044c5.565-2.201,7.003-3.262,8.238-0.998c1.135,2.079,3.01-0.162,3.122-1.894 s-2.746-4.723-13.865,0.644c-9.581,4.625-9.618,7.556-12.65,11.833c-2.723,3.843-10.008-1.667-10.493-2.875 s-0.487-1.708-0.487-1.708S3.649,26.592,6.179,29.341z" opacity=".58" />
  <path fill="#e88c6f" d="M17.055,25.165c0,0,1.813,2.273,1.852,3.031l0.745-1.081c0,0-0.84-2.302-1.965-2.927 L17.055,25.165z" opacity=".6" />
  <path fill="#e88c6f" d="M22.521,19.417c0,0,1.073,1.196,1.193,3.205c0.975-0.708,1.04-0.806,1.04-0.806 s-0.317-2.362-1.088-3.12C22.833,19.25,22.521,19.417,22.521,19.417z" opacity=".6" />
  <path fill="#e88c6f" d="M29.094,15.875c0,0,0.936,1.324,0.672,3.131l1.168-0.476c0,0,0.242-1.721-0.674-3.157 L29.094,15.875z" opacity=".6" />
  <path fill="#e88c6f" d="M36.729,13.583c0,0,0.499,1.782-0.48,3.204c0,0,0.545-0.163,1.045,0.1 c0,0,1.122-1.991,1.059-3.324c0,0-0.317-0.043-0.784-0.032C37.36,13.536,36.729,13.583,36.729,13.583z" opacity=".6" />
</svg>