<svg xmlns="http://www.w3.org/2000/svg" viewBox="0 0 512 512" width="500px" height="500px">
  <path fill="none" d="M188.5 220.7c-6.5.1-13 1-19.3 2.7C175.4 221.7 181.9 220.8 188.5 220.7zM382.2 183.1c-.2 0-.4 0-.6 0C381.8 183.1 382 183.1 382.2 183.1L382.2 183.1z" />
  <path fill="#74CCCF" d="M329.2,138.4c-2.7,2-5.4,4.5-6.2,7.6c-0.5,1.6-1.4,2.9-2.7,3.7c0.5,0.4,0.9,0.9,1.4,1.3c2.5,2.4,5,4.8,7.5,7.3c2.3-3.2,5.1-6.6,6-10.1C336.1,144,332.5,140.9,329.2,138.4z" />
  <path fill="#C56528" d="M362.1,159.8c-3.5-8-7.9-15.5-12.6-22.9c-3.9-6.1-7.7-12.7-12.3-18.2c-18.2-21.4-54.9-16.4-73.8,2.1c18.9-1.4,35.2,9.5,49.2,21.9c2.4-6.9,7.9-11.7,13.9-15.8c2.9-1.9,5.8-0.8,7.3,1.4c0.3,0.2,0.6,0.3,0.9,0.5c6.1,4.6,12.3,10.6,11.6,18.9c-0.5,6.7-5.4,12.3-8.9,17.7c-0.2,0.3-0.5,0.6-0.7,0.9c3.4,3.8,6.6,7.8,9.2,12c4.3,6.8,8,14.2,10.6,22C371.4,190.7,368.4,174,362.1,159.8z" />
  <path fill="#C56528" d="M346.7 205.4c-7.4-22.7-24.1-39.6-42-54.8-8.2-7-17.9-15.4-28.6-17.9-10.1-2.4-20.1-.3-29.4 4.2-7.6 3.8-14.5 8.8-20.9 14.5 1.3-.4 2.6-.8 3.9-1.1 12.8-2.9 26 .2 37.7 5.5 9.2 4.2 19 8.3 27.5 13.9 7.8 5.2 14 11.7 17.8 20.4 4.9 11.3 6.7 24.4 9.2 36.5 1.6 7.8 3.1 16.3 2.6 24.5 7.6-3.4 14.5-8.6 19.3-15.4C350.6 226.1 350.2 216.3 346.7 205.4zM392.9 152.2c-1.5-20-8.6-41-21.9-56.2-6.1-7-14.2-13.1-23.4-15.1-10.2-2.2-21.5-.5-31.6 1.5-13.4 2.7-26.6 7.7-37.1 16 23.3-8.6 51.6-5.3 67.3 14.3 5.6 7 10.4 14.9 15.1 22.5 5.2 8.5 10.3 17.5 13.5 27 2.7 7.7 3.9 15.6 3 23 .1-.1.3-.3.4-.4 0 0 .1-.1.1-.1.1-.1.2-.2.3-.3 0 0 .1-.1.1-.1.1-.1.2-.2.3-.2 0 0 .1-.1.1-.1.3-.2.7-.4 1-.5 0 0 .1 0 .1 0 .1 0 .3-.1.4-.1 0 0 .1 0 .1 0 .2 0 .3-.1.5-.1 0 0 .1 0 .1 0 .2 0 .4 0 .6 0 .8-.3 1.5-.4 2.4-.6.6-.1 1.1-.1 1.7 0 .2-.3.3-.6.5-.9 0 0 0 0 0 0 .2-.3.3-.6.5-.9 1.6-3.2 2.7-6.6 3.6-10.1C392.5 164.2 393.4 158.5 392.9 152.2z" />
  <path fill="#74CCCF" d="M440.7 74c-2.7-6.8-7.1-15.2-14.4-17.9-5.3-1.9-11.2.3-15.7 3.1C398.4 67 389 78.9 380.9 90.6c2.7 3.3 5.2 6.9 7.4 10.6 2.7-1.9 4.4-5.7 6.5-8.2 2.9-3.6 6.5-6.4 10.6-8.4 7.4-3.7 12.5-.3 18.2 4.3 4 3.2 12.9 8.8 17.1 2.9C444.1 87 442.7 79.1 440.7 74zM268.5 225.4c-.8-.2-1.5-.6-2-1-5.9 5.6-10.9 12.2-17.1 17.6 3.2 2.7 6.3 5.7 9.1 8.9C264.2 246.5 278.6 228.3 268.5 225.4z" />
  <path fill="#C56528" d="M307.2,211.3c-2.1-9.9-4.2-20.3-12-27.5c-6.8-6.3-15.5-9.9-23.7-13.8c-11.4-5.4-23.5-11.4-36.6-9.5c-12.7,1.9-23.4,10.3-29.8,21.2c-0.3,0.5-0.6,1.1-0.9,1.7c0,0,0,0,0,0.1c-0.3,0.6-0.6,1.1-0.9,1.7c0,0,0,0.1-0.1,0.1c-0.3,0.6-0.6,1.1-0.8,1.7c0,0.1,0,0.1-0.1,0.2c-0.3,0.6-0.5,1.1-0.8,1.7c0,0.1-0.1,0.1-0.1,0.2c-0.3,0.6-0.5,1.1-0.7,1.7c0,0.1-0.1,0.1-0.1,0.2c-0.2,0.6-0.4,1.2-0.7,1.7c0,0.1,0,0.1-0.1,0.2c-0.2,0.6-0.4,1.2-0.6,1.8c0,0.1,0,0.1-0.1,0.2c-0.2,0.6-0.3,1.2-0.5,1.8c0,0.1,0,0.1,0,0.2c-0.1,0.6-0.3,1.2-0.4,1.8c0,0.1,0,0.1,0,0.2c-0.1,0.6-0.2,1.2-0.3,1.8c0,0.1,0,0.1,0,0.2c-0.1,0.6-0.1,1.2-0.2,1.9c0,0,0,0.1,0,0.1c0,0.6,0,1.3,0,1.9c0,0,0,0.1,0,0.1c0,0.6,0,1.3,0.1,1.9c0,0,0,0,0,0c0.2,2,0.7,3.9,1.4,5.9c0.1,0.1,0.3,0.2,0.4,0.3c0.3,0.2,0.5,0.5,0.7,0.8c0.1,0.1,0.2,0.1,0.3,0.2c1.1,0.9,1.7,2.3,1.9,3.7c0.1,1.3-0.3,2.7-1.1,3.7c1,0.1,1.9,0.3,2.9,0.4c0.3,0.1,0.7,0.1,1,0.2c0.6,0.1,1.3,0.2,1.9,0.3c0.4,0.1,0.8,0.1,1.2,0.2c0.6,0.1,1.2,0.3,1.8,0.4c0.4,0.1,0.8,0.2,1.1,0.3c0.7,0.2,1.4,0.3,2.1,0.5c0.3,0.1,0.6,0.1,0.8,0.2c0.9,0.3,1.9,0.5,2.8,0.8c0.3,0.1,0.6,0.2,0.9,0.3c0.6,0.2,1.3,0.4,1.9,0.6c0.4,0.1,0.7,0.2,1.1,0.4c0.6,0.2,1.2,0.4,1.8,0.6c0.4,0.1,0.7,0.3,1.1,0.4c0.6,0.2,1.3,0.5,1.9,0.8c0.3,0.1,0.6,0.2,0.9,0.4c0.9,0.4,1.8,0.8,2.7,1.2c0.2,0.1,0.4,0.2,0.6,0.3c0.7,0.3,1.4,0.7,2.1,1c0.3,0.2,0.6,0.3,0.9,0.5c0.6,0.3,1.2,0.6,1.8,0.9c0.3,0.2,0.6,0.3,0.9,0.5c0.6,0.3,1.2,0.7,1.8,1c0.3,0.2,0.5,0.3,0.8,0.5c0.9,0.5,1.7,1,2.5,1.6c0.3-0.8,0.9-1.5,1.7-2.2c7.7-6.3,13.3-14.7,21-21c3.2-2.6,6.6-0.6,7.8,2.4c21.6,6.9,7.9,35.9-6.2,44.9c3.2,4.9,5.9,10.2,8,15.7c2.8-1.6,6.6-1.1,7.7,2.8c0.6,2.3,1.8,5.1,3.6,5.1c7-0.2,13.7-6.3,18.2-11.1c5.7-6,10-12,10.7-20.2C314.5,238.2,310.1,224.5,307.2,211.3z" />
  <path fill="#C56528" d="M266.5,296.8c-1.4-22.6-15.9-43.6-35.5-54.5c-18.4-10.3-43.5-14.7-63.7-7.2c-13.2,4.9-23.8,14-32.6,24.7c14.3-3.8,29.6-4.1,44.2-2.9c14.9,1.3,31.6,4.2,44.3,12.7c17.8,11.9,26.1,33.1,25.6,54.2c-0.1,6.3-0.9,12.8-2.3,19.1c6.8,0.6,11.7-11.8,13.6-16.5C263.9,317.1,267.2,307.1,266.5,296.8z" />
  <path fill="#74CCCF" d="M174.7,328.3c-0.9,0.3-1.7,0.7-2.6,1.2c-0.3,0.2-0.7,0.3-1,0.5c-10,8.1-18.2,18.4-26,28.5c0.4,0.5,0.8,1,1.1,1.5c-2.5,2.9-4.7,6-7,9c-0.2-0.3-0.4-0.5-0.6-0.8c-0.2-0.2-0.4-0.5-0.5-0.7c-4.7,6-9.4,12-13.9,18.1c-6.4,8.7-12.5,17.6-19.5,25.9c-3.7,4.3-7.8,9.3-12.9,12.4c0.2,2.8-1.3,5.5-4.9,5.5c-0.7,0-1.3-0.1-1.9-0.3c-1.7,1.8-3.5,3.5-5.1,5.4c-1.8,2.1-5.5,5.7-4.3,8.9c1.8,4.7,10.8,1.7,13.8,0c3.9-2.2,7.8-3.8,11.3-6.6c3.4-2.7,6.5-5.7,9.4-8.9c6.3-7,11.8-14.6,16.9-22.5c5-7.7,10-15.2,15.6-22.4c6.7-8.6,13.7-17.1,19.7-26.3c4.3-6.5,9.6-14.1,11.4-21.8C174.4,333,175.1,330.4,174.7,328.3z" />
  <path fill="#C56528" d="M235.5,304.8c-2.9-9.7-7.9-18.8-16.3-24.7c-8.5-6-19.3-9-29.5-10.8c-11.8-2-23.9-2.6-35.9-1.6c-9.6,0.8-21,2-28.6,8.5c-14,12-12,35.7-10.8,52.6c1.3,0.2,2.6,0.8,3.7,2c5.9,7,13,12.9,19.5,19.4c0.4-0.5,0.8-1.1,1.3-1.6c8.5-10.8,17.5-21.5,28.6-29.7c1.5-1.1,3.1-1.3,4.4-0.9c6.1-1.5,12,0.3,13.5,8.2c1.5,8.2-2.4,16.6-6.1,23.6c-5.1,9.6-11.3,18.4-17.9,27.1c3,2,6.3,3.5,10.2,3.9c18.9,2.2,41.1-0.7,53.6-16.6C237.5,348.6,241.1,323.8,235.5,304.8z" />
  <path fill="#010101" d="M450.2,68.2c-3.8-8.7-9.4-17.2-18.1-21.5c-7.2-3.5-15.6-2.4-22.7,0.8c-15.2,7-26.8,21.5-36.3,35c-5.2-4.6-11-8.3-17.6-10.7c-10.1-3.7-20.5-3.1-31-1.9c-11.3,1.3-22.4,4-32.9,8.3c-16.9,7-31.2,19.1-39,35.8c-0.4,1-0.6,1.9-0.5,2.7c-0.6,0.7-1.1,1.4-1.7,2.1c-1.2,1.6-1.4,3.4-0.9,4.9c-19.2,6.6-35.2,22.2-47.6,37.5c-3,3.7-5.8,7.6-8.5,11.6c-1.6,2.4-1.2,5.1,0.2,7c-6.1,11.2-9.8,25.7-4.3,37.5c0.1,0.2,0.2,0.4,0.3,0.6c0,0,0,0,0,0.1c0.1,0.2,0.2,0.3,0.3,0.5c0,0,0,0,0,0c0.1,0.2,0.2,0.3,0.4,0.4c0,0,0,0,0,0c0.1,0.1,0.3,0.3,0.4,0.4c3.9,3.5,11.5,0,8.9-5.6c-1-2.3-1.6-4.6-1.9-6.9c0,0,0,0,0,0c-0.1-0.6-0.1-1.3-0.1-1.9c0,0,0-0.1,0-0.1c0-0.6,0-1.3,0-1.9c0,0,0-0.1,0-0.1c0-0.6,0.1-1.2,0.2-1.9c0-0.1,0-0.1,0-0.2c0.1-0.6,0.2-1.2,0.3-1.8c0-0.1,0-0.1,0-0.2c0.1-0.6,0.2-1.2,0.4-1.8c0-0.1,0-0.1,0-0.2c0.2-0.6,0.3-1.2,0.5-1.8c0-0.1,0-0.1,0.1-0.2c0.2-0.6,0.4-1.2,0.6-1.8c0-0.1,0-0.1,0.1-0.2c0.2-0.6,0.4-1.2,0.7-1.7c0-0.1,0.1-0.1,0.1-0.2c0.2-0.6,0.5-1.1,0.7-1.7c0-0.1,0.1-0.1,0.1-0.2c0.3-0.6,0.5-1.1,0.8-1.7c0-0.1,0-0.1,0.1-0.2c0.3-0.6,0.6-1.1,0.8-1.7c0,0,0-0.1,0.1-0.1c0.3-0.6,0.6-1.1,0.9-1.7c0,0,0,0,0-0.1c0.3-0.6,0.6-1.1,0.9-1.7c6.4-10.9,17.1-19.3,29.8-21.2c13.1-2,25.1,4,36.6,9.5c8.3,3.9,16.9,7.5,23.7,13.8c7.8,7.2,9.9,17.6,12,27.5c2.9,13.2,7.3,27,6,40.7c-0.8,8.2-5,14.1-10.7,20.2c-4.5,4.8-11.2,10.9-18.2,11.1c-1.8,0.1-2.9-2.8-3.6-5.1c-1.1-3.9-4.9-4.4-7.7-2.8c-2.1-5.5-4.8-10.8-8-15.7c14-9,27.8-38,6.2-44.9c-1.2-3-4.6-5-7.8-2.4c-7.7,6.3-13.3,14.7-21,21c-0.8,0.6-1.3,1.4-1.7,2.2c-0.8-0.5-1.7-1.1-2.5-1.6c-0.3-0.2-0.5-0.3-0.8-0.5c-0.6-0.4-1.2-0.7-1.8-1c-0.3-0.2-0.6-0.4-0.9-0.5c-0.6-0.3-1.2-0.6-1.8-0.9c-0.3-0.2-0.6-0.3-0.9-0.5c-0.7-0.4-1.4-0.7-2.1-1c-0.2-0.1-0.4-0.2-0.6-0.3c-0.9-0.4-1.8-0.8-2.7-1.2c-0.3-0.1-0.6-0.2-0.9-0.4c-0.6-0.3-1.3-0.5-1.9-0.8c-0.4-0.1-0.7-0.3-1.1-0.4c-0.6-0.2-1.2-0.4-1.8-0.6c-0.4-0.1-0.7-0.3-1.1-0.4c-0.6-0.2-1.3-0.4-1.9-0.6c-0.3-0.1-0.6-0.2-0.9-0.3c-0.9-0.3-1.9-0.5-2.8-0.8c-0.3-0.1-0.6-0.1-0.8-0.2c-0.7-0.2-1.4-0.4-2.1-0.5c-0.4-0.1-0.8-0.2-1.1-0.3c-0.6-0.1-1.2-0.3-1.8-0.4c-0.4-0.1-0.8-0.2-1.2-0.2c-0.6-0.1-1.3-0.2-1.9-0.3c-0.3-0.1-0.7-0.1-1-0.2c-4.3-0.7-8.6-1-13-1.1c-7.5-0.1-15,0.8-22.2,2.7c0,0,0,0-0.1,0c-1,0.3-2,0.6-3,0.9c-0.1,0-0.1,0-0.2,0.1c-1,0.3-1.9,0.6-2.9,1c-0.1,0-0.2,0.1-0.4,0.1c-0.9,0.3-1.8,0.7-2.6,1c-0.2,0.1-0.3,0.1-0.5,0.2c-0.8,0.3-1.6,0.7-2.4,1.1c-0.2,0.1-0.5,0.2-0.7,0.3c-0.7,0.3-1.5,0.7-2.2,1.1c-0.3,0.1-0.6,0.3-0.8,0.5c-0.7,0.4-1.3,0.7-2,1.1c-0.4,0.2-0.7,0.4-1,0.6c-0.6,0.3-1.2,0.7-1.7,1c-0.5,0.3-1,0.7-1.5,1c-0.4,0.3-0.8,0.5-1.2,0.8c-0.9,0.6-1.8,1.3-2.7,1.9c-12.4,9.5-21.9,22.3-30,35.5c-0.7,1.1-0.9,2.1-0.8,3.1c-10.5,15.3-10,38.6-8.8,56.8c0.2,3.1,2.5,4.7,4.9,4.9c0.2,0.3,0.3,0.5,0.5,0.8c6.7,7.8,14.7,14.5,21.8,21.9c-4.2,5.4-8.3,10.7-12.4,16.2c-6.1,8.1-11.9,16.5-18.2,24.5c-3,3.8-6.2,7.6-9.6,11.1c-1.4,1.5-4.5,4.1-5.7,4.7c-1.4-0.1-2.9,0.5-4,2c-6.4,8.1-16.8,14.7-16.3,26.2c0.4,9.1,8.6,13.1,16.5,13.1h0c1.1,0,2.3-0.1,3.3-0.2c9.8-1.4,19.5-7.6,26.7-14.1c9.2-8.2,16.5-18.2,23.4-28.4c6.5-9.7,12.9-19.1,20-28.3c2.8,2,5.8,3.6,9.2,4.7c10.4,3.4,23.2,2.7,34,0.9c9.8-1.7,19.3-5.3,27.2-11.4c8.7-6.7,14.7-16.1,18.5-26.4c18.5,4.1,26.8-22.1,31.4-35.9c2.8-8.4,3.4-17.1,2.3-25.6c2.6,1.7,5.8,2.6,9.4,2.2c8.2-0.7,15.4-6.5,21.2-11.8c5.5-5,11-11.4,13.9-18.4c21.8-6.6,41.9-26.7,38.2-50.8c-0.1-0.9-0.3-1.8-0.5-2.7c1,0.1,2.2-0.2,3.3-0.9c0.5-0.3,0.9-0.6,1.4-0.9c0.2-0.2,0.5-0.3,0.7-0.5c0.2-0.1,0.4-0.3,0.6-0.4c0.3-0.2,0.6-0.5,0.9-0.7c0.1-0.1,0.2-0.2,0.4-0.3c0.3-0.3,0.6-0.5,0.9-0.8c0.1-0.1,0.1-0.1,0.2-0.2c0.3-0.3,0.6-0.6,1-0.9c0,0,0.1-0.1,0.1-0.1c0.3-0.3,0.7-0.7,1-1l0,0c0.3-0.4,0.6-0.7,0.9-1.1c0,0,0,0,0,0c0.3-0.4,0.6-0.7,0.9-1.1c2.5-3.3,4.3-6.9,5.3-10.7c0.3,0.7,0.8,1.3,1.6,1.9c2.6,2.1,5,2.9,7.2,2.9c0.3,0,0.6,0,0.9-0.1c0,0,0.1,0,0.1,0c0.3,0,0.6-0.1,0.9-0.2c0,0,0,0,0,0c0.6-0.2,1.2-0.4,1.8-0.7c0,0,0,0,0.1,0c0.3-0.1,0.6-0.3,0.8-0.5l0,0c0.6-0.4,1.1-0.8,1.6-1.2c0,0,0,0,0.1-0.1c0.5-0.5,1-1,1.5-1.5c0,0,0,0,0,0c0.2-0.3,0.5-0.6,0.7-0.9c0,0,0,0,0.1-0.1c0.5-0.6,0.9-1.2,1.3-1.9c0,0,0,0,0,0c0.2-0.3,0.4-0.7,0.6-1c0,0,0-0.1,0-0.1c0.4-0.7,0.8-1.4,1.1-2.2c0,0,0,0,0,0c0.2-0.4,0.4-0.7,0.5-1.1c0,0,0-0.1,0-0.1c0.3-0.8,0.7-1.5,1-2.3c0,0,0,0,0-0.1c0.2-0.4,0.3-0.8,0.4-1.1c0,0,0-0.1,0-0.1c0.3-0.8,0.6-1.6,0.8-2.3c0,0,0-0.1,0-0.1c0.1-0.4,0.2-0.8,0.4-1.1c0,0,0-0.1,0-0.1c0.2-0.8,0.5-1.5,0.7-2.3c0,0,0-0.1,0-0.1c0.1-0.4,0.2-0.7,0.3-1.1c0,0,0-0.1,0-0.1c0.2-0.7,0.4-1.4,0.5-2.1c0,0,0-0.1,0-0.1c0.1-0.3,0.2-0.6,0.2-0.9c0,0,0-0.1,0-0.1c0.1-0.6,0.3-1.2,0.4-1.8c0,0,0-0.1,0-0.1c0.1-0.3,0.1-0.5,0.2-0.8c0,0,0-0.1,0-0.1c0-0.3,0.1-0.5,0.1-0.7c3.1-16.8-1.4-35.1-7.7-50.6c-0.6-1.5-1.3-3.1-2-4.6c0.2-0.1,0.5-0.2,0.7-0.4c3.5-2.2,5.7-6,8.1-9.2c1.8-2.4,6.3-7.9,9.7-7.5c0.9,0.1,2,1.4,2.7,1.9c1.9,1.6,3.9,3.2,6,4.6c4.1,2.7,8.8,4.6,13.7,4.9C454.5,106.5,456.2,82,450.2,68.2z M266.4,224.4c0.6,0.4,1.2,0.8,2,1c10.1,2.9-4.3,21.2-10.1,25.4c-2.8-3.2-5.8-6.2-9.1-8.9C255.5,236.6,260.5,230,266.4,224.4z M142.7,383c-5.7,7.2-10.6,14.8-15.6,22.4c-5.1,7.9-10.7,15.5-16.9,22.5c-2.9,3.2-6,6.2-9.4,8.9c-3.6,2.8-7.4,4.4-11.3,6.6c-3,1.7-12,4.8-13.8,0c-1.2-3.2,2.5-6.8,4.3-8.9c1.6-1.9,3.4-3.6,5.1-5.4c0.6,0.2,1.2,0.3,1.9,0.3c3.6,0,5.1-2.8,4.9-5.5c5.1-3.1,9.2-8.1,12.9-12.4c7-8.2,13.2-17.1,19.5-25.9c4.5-6.1,9.2-12.1,13.9-18.1c0.2,0.2,0.4,0.5,0.5,0.7c0.2,0.3,0.4,0.5,0.6,0.8c2.3-3.1,4.5-6.1,7-9c-0.4-0.5-0.8-1-1.1-1.5c7.8-10.2,16-20.5,26-28.5c0.3-0.1,0.7-0.3,1-0.5c0.8-0.5,1.7-0.9,2.6-1.2c0.5,2-0.3,4.7-0.8,6.6c-1.9,7.7-7.2,15.2-11.4,21.8C156.5,365.9,149.5,374.4,142.7,383z M225.1,364.3c-12.5,15.9-34.7,18.7-53.6,16.6c-3.9-0.4-7.2-1.9-10.2-3.9c6.6-8.6,12.8-17.5,17.9-27.1c3.8-7.1,7.7-15.4,6.1-23.6c-1.5-7.9-7.4-9.7-13.5-8.2c-1.3-0.4-2.9-0.3-4.4,0.9c-11.1,8.3-20.1,18.9-28.6,29.7c-0.4,0.5-0.8,1.1-1.3,1.6c-6.5-6.5-13.6-12.4-19.5-19.4c-1.1-1.2-2.4-1.9-3.7-2c-1.2-16.9-3.2-40.6,10.8-52.6c7.6-6.5,19-7.7,28.6-8.5c12-1,24.1-0.4,35.9,1.6c10.1,1.7,21,4.7,29.5,10.8c8.4,6,13.4,15.1,16.3,24.7C241.1,323.8,237.5,348.6,225.1,364.3z M260.2,326.5c-1.9,4.7-6.8,17.1-13.6,16.5c1.4-6.4,2.2-12.8,2.3-19.1c0.5-21.1-7.8-42.2-25.6-54.2c-12.7-8.5-29.4-11.4-44.3-12.7c-14.6-1.3-29.9-0.9-44.2,2.9c8.8-10.7,19.3-19.8,32.6-24.7c20.2-7.4,45.3-3,63.7,7.2c19.6,10.9,34.1,31.9,35.5,54.5C267.2,307.1,263.9,317.1,260.2,326.5z M343.7,235.7c-4.8,6.8-11.7,12-19.3,15.4c0.5-8.2-1-16.7-2.6-24.5c-2.5-12-4.3-25.2-9.2-36.5c-3.8-8.7-10-15.2-17.8-20.4c-8.4-5.6-18.3-9.7-27.5-13.9c-11.7-5.3-24.9-8.4-37.7-5.5c-1.3,0.3-2.6,0.7-3.9,1.1c6.3-5.8,13.3-10.8,20.9-14.5c9.2-4.6,19.2-6.6,29.4-4.2c10.8,2.5,20.4,10.9,28.6,17.9c17.8,15.2,34.5,32.1,42,54.8C350.2,216.3,350.6,226.1,343.7,235.7z M320.2,149.8c1.3-0.8,2.3-2.1,2.7-3.7c0.9-3.1,3.5-5.6,6.2-7.6c3.3,2.5,7,5.5,5.9,9.8c-0.9,3.5-3.7,7-6,10.1c-2.5-2.5-5-4.9-7.5-7.3C321.1,150.7,320.7,150.2,320.2,149.8z M356.6,200.3c-2.6-7.7-6.3-15.2-10.6-22c-2.7-4.2-5.8-8.2-9.2-12c0.3-0.3,0.5-0.6,0.7-0.9c3.4-5.4,8.3-11,8.9-17.7c0.6-8.3-5.5-14.3-11.6-18.9c-0.3-0.2-0.6-0.4-0.9-0.5c-1.6-2.2-4.5-3.3-7.3-1.4c-6,4-11.5,8.8-13.9,15.8c-14-12.4-30.3-23.2-49.2-21.9c18.9-18.5,55.6-23.5,73.8-2.1c4.7,5.5,8.4,12.1,12.3,18.2c4.7,7.3,9.1,14.9,12.6,22.9C368.4,174,371.4,190.7,356.6,200.3z M390.9,170.7c-0.9,3.5-2,6.9-3.6,10.1c-0.2,0.3-0.3,0.6-0.5,0.9c0,0,0,0,0,0c-0.5,0.8-1,1.6-1.6,2.3c0,0,0,0,0,0c-1-0.6-2-0.9-3-0.9h0c-0.2,0-0.4,0-0.6,0c0,0-0.1,0-0.1,0c-0.2,0-0.3,0.1-0.5,0.1c0,0-0.1,0-0.1,0c-0.1,0-0.3,0.1-0.4,0.1c0,0-0.1,0-0.1,0c-0.4,0.1-0.7,0.3-1,0.5c0,0-0.1,0-0.1,0.1c-0.1,0.1-0.2,0.2-0.3,0.2c0,0-0.1,0.1-0.1,0.1c-0.1,0.1-0.2,0.2-0.3,0.3c0,0-0.1,0.1-0.1,0.1c-0.1,0.1-0.3,0.3-0.4,0.4c0.8-7.4-0.4-15.3-3-23c-3.3-9.5-8.3-18.5-13.5-27c-4.7-7.6-9.5-15.6-15.1-22.5c-15.8-19.6-44-22.8-67.3-14.3c10.5-8.3,23.6-13.3,37.1-16c10.1-2,21.4-3.7,31.6-1.5c9.2,2,17.3,8.1,23.4,15.1c13.3,15.3,20.4,36.2,21.9,56.2C393.4,158.5,392.5,164.2,390.9,170.7z M440.6,91.9c-4.2,5.9-13.1,0.3-17.1-2.9c-5.7-4.7-10.8-8-18.2-4.3c-4.1,2.1-7.7,4.9-10.6,8.4c-2,2.5-3.8,6.3-6.5,8.2c-2.2-3.7-4.7-7.3-7.4-10.6c8.2-11.7,17.5-23.6,29.7-31.3c4.5-2.8,10.5-5.1,15.7-3.1c7.3,2.7,11.7,11.1,14.4,17.9C442.7,79.1,444.1,87,440.6,91.9z" />
  <path fill="#010101" d="M384.6 182.5c-.8.2-1.6.3-2.4.6 1 0 2 .3 3 .9 0 0 0 0 0 0 .4-.5.7-1 1.1-1.4C385.7 182.4 385.2 182.4 384.6 182.5zM386.3 182.5C386.3 182.5 386.3 182.5 386.3 182.5c.2-.3.4-.6.5-.8C386.6 182 386.4 182.3 386.3 182.5zM378.4 192.6c-.7-.6-1.2-1.2-1.6-1.9-1.1 3.8-2.8 7.4-5.3 10.7 5.6.6 10.8-1.7 14.1-5.9C383.4 195.6 381 194.7 378.4 192.6zM204.3 221.7c-1-.1-1.9-.3-2.9-.4.8-1.1 1.2-2.4 1.1-3.7-.1-1.4-.8-2.8-1.9-3.7-.1-.1-.2-.1-.3-.2-.2-.3-.5-.6-.7-.8-.1-.1-.2-.2-.3-.2.1.4.3.7.4 1.1 2.6 5.6-5 9.1-8.9 5.6l0 0c.1.5.3.9.6 1.4 0 0 0 0-.1 0C195.6 220.7 200 221 204.3 221.7zM199.3 212.6C199.3 212.6 199.3 212.6 199.3 212.6c0-.1-.1-.2-.1-.3C199.2 212.4 199.2 212.5 199.3 212.6z" />
</svg>