<svg xmlns="http://www.w3.org/2000/svg" viewBox="0 0 512 512" width="500px" height="500px">
  <path fill="#FCBF95" d="M275.4,231.1c-9.7-0.3-19.4-1.4-28.8-4c-7.8-2.1-17.4-4.2-23.8-9.4c-12-9.9-7.9-24.8-3.8-37.6 c5.4-16.9,11-33.7,11.6-51.4c-1.3,0.3-2.6,0.6-3.8,0.9c-1.5,0.4-6.1,1-6.8,2.7c-2.5,6.6-0.9,14.6-1.2,21.4 c-0.4,9.7-2.9,19.5-5.4,28.9c-1.7,6.7-3.7,13.3-6,19.7c0.7,0.8,1.2,1.9,1.2,3.1c-0.1,2.9-0.7,4.7-2.4,7.1c-1.4,2-3.4,2.4-5.1,1.9 c-0.1,0-0.3,0.1-0.4,0.1c-13.9,10.5-27.6,21.1-43.1,29.3c-14.7,7.7-29.7,17.3-46.6,18.5c0.3,2.5,0.5,5.1,0.5,7.6 c17.8-2,35.7-8.5,51.9-15.7c13.8-6.1,30.5-14.9,37.8-28.8c0.8-1.6,2.6-3.1,4.5-3c12.9,0.4,23.5,7.4,35.8,9.8 c13.6,2.6,26.9,5.2,40.6,6.3c6.5,0.5,13,1,19.5,1.1c6,0,13.4,0.5,19.2-1.3c5.2-1.6,6.9-7.3,7.8-12.9 C311,228,293.3,231.6,275.4,231.1z" />
  <path fill="#EF4823" d="M456.1,257.2c-14.4,18.7-35.7,31.7-58.2,38.3c-13,3.8-26.3,5.7-39.9,5.3c-15.3-0.4-30.4-2.7-45.6-3.4 c-15-0.7-29.5,0.5-43.7,5.4c-12.8,4.4-24.8,10.4-36.8,16.6c-24.7,12.7-49.3,24.3-77.6,25.3c-15.5,0.6-30.9-0.9-46.2-2.8 c-8.1-1-16.3-2.1-24.4-2.8c-7.3-0.7-14.7-1.8-22.1-1.8c-1.1,1-2.6,1.4-4.5,0.9c-8.6-2.3-17.5-5.6-25.2-10.5 c1.3,3.2,2.5,6.4,3.6,9.7c4.2,13.3,8,26.7,13.8,39.4c30.1,15.5,63.4,23.7,97.3,24.5c15.8,0.4,31.7-0.7,46.9-5.2 c14.6-4.3,28.4-10.9,41.2-19.2c23.1-15,45.3-33.7,73.9-36.3c14.6-1.3,26.7,2.5,39.7,8.8c12.4,6.1,25.5,10,39.3,5.8 c13.2-4,25-12.1,35-21.5c9.1-8.5,19-17.8,25.4-28.6c6.6-11.3,8.5-23.2,9.5-36.1c0.4-5.1,0.7-10.1,1.1-15.2 C457.8,254.9,457,256,456.1,257.2z" />
  <path fill="#FCBF95" d="M314.1,128.2c-13,2.1-29.4,9.2-36.7,21c-3.1,5-5.2,11.1,1.4,14.1c6.4,2.9,14,3.2,20.9,2.7 c2.3-0.2,4,0.9,4.9,2.4c5.5-0.5,10.9-1.5,16.4-3.4c8.8-2.9,18.9-8.9,19.7-19.2C342.2,129.9,326.7,126.1,314.1,128.2z" />
  <path fill="#EF4754" d="M435.6,143.4c-15.2-21.4-33.1-41.2-55.8-54.8c-22.6-13.5-47.7-20.8-73.8-23c-26.4-2.3-54,0.8-78,12.8 c-24.5,12.2-43.4,33.5-61.3,53.7c-18.2,20.5-36.4,40.4-58.6,56.8c-18.8,13.8-39.2,26.1-56,42.4c-15.7,15.2-31.4,36.9-30,60 c0.1,0.9,0.2,1.9,0.3,2.8c1.5,0.7,2.6,2.1,2.4,4.4c-0.1,1.5-0.1,3,0,4.5c5.7,12.9,19.1,20.2,33.3,24.2c0.7-0.5,1.7-0.7,2.8-0.7 c9,0,18,1.3,26.9,2.2c8.8,0.9,17.5,2.1,26.2,3.1c18.2,2.1,36.7,3.7,54.9,0.7c30.6-4.9,56.2-23.4,84.2-35.2 c12.9-5.5,26.4-9.8,40.5-10.6c15-0.9,30,0.8,45,2.1c15,1.3,30.1,2.2,45-0.8c11.4-2.3,22.9-6.2,33.1-11.8 c20.6-11.3,39.6-29.8,43.8-53.9C465.3,193.7,451.7,166,435.6,143.4z M340.6,219.8c-1.6,8.8-2.7,22-11.7,26.8 c-5.3,2.8-11.3,3.3-17.2,3.6c-7.1,0.4-14.2,0.2-21.3-0.3c-14.7-0.9-29.3-2.5-43.6-5.5c-6.9-1.5-13.5-3.1-20.1-5.6 c-5.6-2.1-11.4-4.6-17.4-5.4c-8.9,14-25.1,23.3-39.8,30c-19.4,8.9-41.4,16.6-62.8,17.8c-2.8,0.2-5.9-2-5.9-5.1c0-5.4,0-10.7-1-16 c-0.5-3,1.2-4.8,3.4-5.4c0.5-1.9,2.1-3.4,4.7-3.5c17.1-0.4,33.4-10.9,47.9-18.9c13.8-7.6,26.1-17.4,38.7-26.8 c0.8-2.9,2.5-5.9,3.4-8.3c2.1-6.1,3.9-12.3,5.5-18.6c2.5-10.3,4.9-20.5,4.8-31.1c-0.1-7.2-1.1-17.9,4.6-23.3 c5.6-5.4,14.7-5.6,21.8-7.6c3.3-0.9,7.2,1,7.3,4.8c0.7,18.4-3.7,36.1-9.4,53.4c-2.9,8.9-12.3,27.3-2.2,34.6 c6.4,4.5,16.1,6.5,23.7,8.1c8.6,1.9,17.4,2.8,26.2,2.6c18.5-0.5,36.6-4.4,54.8-6.8C338.4,212.8,341.2,216.5,340.6,219.8z M348.5,157.4c-11.7,19.7-37,22.3-57.7,22.4c0,0-0.1,0-0.1,0h-1.8c-2.7,0-4.5-1.6-5.3-3.6c-7.5-1.3-14.5-4.4-18.2-10.7 c-8.6-14.6,8.5-31.1,19.8-37.9c13-7.9,30.9-14.2,46.2-9.9c6.8,1.9,13.4,5.7,16.8,12.1C352.5,138.3,353.5,149,348.5,157.4z" />
  <path fill="#010101" d="M471.6,218.7c1.3-11.5,0.1-23.4-3.2-35.1c-7.5-26.3-24.8-50-42.6-70.3c-17-19.3-37.8-34.9-61.5-45 c-24.1-10.4-51-14.6-77.1-14.4c-26.4,0.2-52.8,6.9-75.3,20.9c-23,14.3-41.2,36.1-59,56.2c-9.1,10.3-18.4,20.5-28.3,30 c-9.4,9-19.9,16.8-30.5,24.4c-30.1,21.4-64,42.5-77.9,78.5c-5.2,13.5-7.1,28.3-2.2,41.8c1.1,11.1,6.3,21.6,10.1,32 c5.1,13.9,8.4,28.3,14.5,41.9c1.5,3.3,2.5,5.3,5.8,7.1c3.1,1.6,6.3,3.2,9.5,4.6c6.8,3.2,13.8,5.9,20.9,8.4 c13.5,4.7,27.4,8,41.5,10.1c27.3,4.1,55.7,4.2,82.4-3.7c12.4-3.7,24.2-9.3,35.3-15.8c12-7,22.8-15.8,34.6-23.1 c11.1-6.8,23.2-12.6,36.1-14.9c13.3-2.5,25.3,0.1,37.3,6.2c10.9,5.6,22.3,9.6,34.7,9.5c13.1-0.1,25.7-5.9,36.5-12.8 c10.5-6.7,19.7-15.6,28.2-24.7c7.6-8.2,14.8-16.3,19.7-26.5c5.3-11,6.5-22.9,7.5-34.9c1.2-15.4,1.8-30.9,4.1-46.3 C472.9,221.1,472.4,219.8,471.6,218.7z M457.5,268.9c-1,12.9-2.9,24.8-9.5,36.1c-6.3,10.8-16.3,20.1-25.4,28.6 c-10,9.4-21.8,17.5-35,21.5c-13.7,4.1-26.8,0.2-39.3-5.8c-13-6.3-25.1-10.1-39.7-8.8c-28.7,2.6-50.8,21.3-73.9,36.3 c-12.8,8.3-26.5,14.9-41.2,19.2c-15.2,4.5-31.1,5.6-46.9,5.2c-33.9-0.8-67.2-9-97.3-24.5c-5.9-12.7-9.6-26.1-13.8-39.4 c-1-3.2-2.3-6.5-3.6-9.7c7.7,5,16.7,8.3,25.2,10.5c1.9,0.5,3.4,0,4.5-0.9c7.3,0,14.7,1.1,22.1,1.8c8.2,0.8,16.3,1.8,24.4,2.8 c15.3,1.9,30.7,3.4,46.2,2.8c28.3-1.1,52.9-12.6,77.6-25.3c12-6.2,24.1-12.2,36.8-16.6c14.3-5,28.7-6.1,43.7-5.4 c15.2,0.7,30.3,3,45.6,3.4c13.6,0.4,26.9-1.5,39.9-5.3c22.5-6.6,43.8-19.6,58.2-38.3c0.9-1.2,1.7-2.3,2.5-3.5 C458.3,258.8,458,263.9,457.5,268.9z M460.4,222.1c-4.2,24.1-23.2,42.6-43.8,53.9c-10.2,5.6-21.7,9.5-33.1,11.8 c-14.8,3-30,2.1-45,0.8c-15-1.3-29.9-3-45-2.1c-14.1,0.8-27.6,5.1-40.5,10.6c-28,11.8-53.6,30.3-84.2,35.2 c-18.2,2.9-36.7,1.4-54.9-0.7c-8.7-1-17.5-2.2-26.2-3.1c-8.9-0.9-17.9-2.2-26.9-2.2c-1.1,0-2.1,0.3-2.8,0.7 c-14.1-4-27.6-11.3-33.3-24.2c-0.1-1.5-0.1-3,0-4.5c0.1-2.3-0.9-3.7-2.4-4.4c-0.1-0.9-0.2-1.8-0.3-2.8c-1.4-23.1,14.3-44.8,30-60 c16.8-16.3,37.2-28.6,56-42.4c22.2-16.3,40.4-36.3,58.6-56.8c17.9-20.2,36.8-41.5,61.3-53.7c24-11.9,51.6-15.1,78-12.8 c26.1,2.2,51.3,9.5,73.8,23c22.7,13.6,40.6,33.5,55.8,54.8C451.7,166,465.3,193.7,460.4,222.1z" />
  <path fill="#010101" d="M348.1,129.9c-3.4-6.5-10-10.3-16.8-12.1c-15.3-4.2-33.1,2.1-46.2,9.9c-11.2,6.8-28.4,23.3-19.8,37.9 c3.7,6.3,10.7,9.3,18.2,10.7c0.8,2,2.6,3.6,5.3,3.6h1.8c0,0,0.1,0,0.1,0c20.8-0.1,46-2.8,57.7-22.4 C353.5,149,352.5,138.3,348.1,129.9z M340.8,145.7c-0.9,10.3-11,16.2-19.7,19.2c-5.5,1.8-10.9,2.8-16.4,3.4 c-0.9-1.5-2.6-2.6-4.9-2.4c-6.9,0.6-14.5,0.2-20.9-2.7c-6.6-3-4.5-9-1.4-14.1c7.3-11.7,23.7-18.8,36.7-21 C326.7,126.1,342.2,129.9,340.8,145.7z" />
  <path fill="#010101" d="M334.8,213.3c-18.3,2.4-36.3,6.3-54.8,6.8c-8.8,0.2-17.6-0.7-26.2-2.6c-7.5-1.6-17.3-3.6-23.7-8.1 c-10.2-7.3-0.8-25.7,2.2-34.6c5.7-17.3,10.1-35,9.4-53.4c-0.1-3.8-4-5.7-7.3-4.8c-7.1,1.9-16.2,2.2-21.8,7.6 c-5.7,5.5-4.7,16.2-4.6,23.3c0.1,10.6-2.2,20.8-4.8,31.1c-1.5,6.3-3.4,12.5-5.5,18.6c-0.8,2.4-2.5,5.4-3.4,8.3 c-12.5,9.5-24.9,19.2-38.7,26.8c-14.6,8.1-30.8,18.6-47.9,18.9c-2.6,0.1-4.1,1.6-4.7,3.5c-2.2,0.6-3.9,2.4-3.4,5.4 c1,5.3,1,10.6,1,16c0,3,3.1,5.2,5.9,5.1c21.5-1.2,43.4-8.9,62.8-17.8c14.6-6.7,30.9-16,39.8-30c6,0.7,11.8,3.2,17.4,5.4 c6.6,2.5,13.2,4.1,20.1,5.6c14.4,3.1,29,4.6,43.6,5.5c7.1,0.4,14.2,0.6,21.3,0.3c5.9-0.3,12-0.8,17.2-3.6 c9.1-4.8,10.1-18,11.7-26.8C341.2,216.5,338.4,212.8,334.8,213.3z M320.9,238.2c-5.8,1.8-13.2,1.3-19.2,1.3 c-6.5,0-13-0.5-19.5-1.1c-13.8-1.1-27.1-3.8-40.6-6.3c-12.4-2.3-22.9-9.4-35.8-9.8c-1.9-0.1-3.7,1.5-4.5,3 c-7.3,13.8-24,22.6-37.8,28.8c-16.2,7.2-34.1,13.6-51.9,15.7c-0.1-2.6-0.2-5.1-0.5-7.6c16.9-1.2,31.9-10.8,46.6-18.5 c15.5-8.2,29.2-18.8,43.1-29.3c0.1,0,0.3-0.1,0.4-0.1c1.7,0.6,3.7,0.2,5.1-1.9c1.7-2.4,2.2-4.2,2.4-7.1c0-1.2-0.4-2.3-1.2-3.1 c2.3-6.5,4.3-13.1,6-19.7c2.4-9.4,5-19.2,5.4-28.9c0.3-6.9-1.3-14.9,1.2-21.4c0.6-1.7,5.3-2.3,6.8-2.7c1.3-0.3,2.5-0.6,3.8-0.9 c-0.6,17.7-6.3,34.6-11.6,51.4c-4.1,12.8-8.2,27.6,3.8,37.6c6.3,5.2,16,7.3,23.8,9.4c9.4,2.6,19,3.7,28.8,4 c17.9,0.5,35.7-3.1,53.3-5.8C327.8,230.8,326,236.6,320.9,238.2z" />
</svg>