<svg xmlns="http://www.w3.org/2000/svg" viewBox="0 0 100 100" width="500px" height="500px">
  <path fill="#8cc78c" d="M67.96,70C61.48,70,55,65.75,55,57.25S66.502,36,80.92,36C90.28,36,91,42.375,91,44.5 c0,4.25-1.44,8.5-7.2,14.167C80.2,62.208,78.04,70,67.96,70z" />
  <path fill="#8cc78c" d="M37.286,86C28.714,86,13,77.273,13,65.636S20.857,54,24.429,54s12.857,5.091,15.714,7.273 C43,63.455,53,67.818,53,75.818C53,81.636,47.286,86,37.286,86z" />
  <path fill="#8cc78c" d="M19,36c0,5.25,7.308,12,16.077,12S57,40.5,57,30c0-9-8.769-12-15.346-12C33.615,18,19,25.5,19,36z" />
  <path fill="#70b570" d="M86,52c-6.075,0-11,4.925-11,11c0,1.658,0.377,3.224,1.034,4.634 c3.685-2.587,5.428-6.668,7.766-8.968c2.336-2.298,3.934-4.356,5.042-6.282C87.934,52.142,86.984,52,86,52z" />
  <path fill="#70b570" d="M46.757,65.667c-2.611-1.991-5.332-3.415-6.615-4.395c-1.953-1.492-6.912-4.342-10.995-5.997 C29.059,55.839,29,56.412,29,57c0,6.075,4.925,11,11,11C42.55,68,44.892,67.124,46.757,65.667z" />
  <path fill="#70b570" d="M35.051,47.999c0.009,0,0.017,0.001,0.026,0.001c5.539,0,12.82-2.998,17.438-7.849 C50.69,38.805,48.442,38,46,38C40.263,38,35.557,42.394,35.051,47.999z" />
  <path fill="#1f212b" d="M67.96,71C61.023,71,54,66.277,54,57.25C54,48.498,65.56,35,80.92,35C91.201,35,92,42.271,92,44.5 c0,5.259-2.243,9.709-7.499,14.88c-0.831,0.817-1.615,1.929-2.445,3.106C79.382,66.279,76.053,71,67.96,71z M80.92,37 C67.164,37,56,49.253,56,57.25C56,65.323,62.2,69,67.96,69c7.056,0,9.928-4.072,12.461-7.666c0.884-1.253,1.718-2.437,2.677-3.38 C89.18,51.971,90,47.796,90,44.5C90,41.699,88.82,37,80.92,37z" />
  <path fill="#1f212b" d="M37.286,87C28.404,87,12,78.19,12,65.637C12,53,21.029,53,24.429,53 c3.926,0,13.497,5.321,16.321,7.478c0.491,0.375,1.253,0.847,2.136,1.393C47.042,64.441,54,68.744,54,75.818 C54,82.611,47.439,87,37.286,87z M24.429,55C20.784,55,14,55,14,65.637C14,76.823,29.314,85,37.286,85 C46.224,85,52,81.396,52,75.818c0-5.959-6.364-9.896-10.166-12.247c-0.928-0.574-1.729-1.069-2.298-1.504 C36.488,59.74,27.571,55,24.429,55z" />
  <path fill="#1f212b" d="M35.077,49C25.88,49,18,41.852,18,36c0-11.165,15.345-19,23.654-19C49.79,17,58,21.02,58,30 C58,41.021,44.308,49,35.077,49z M41.654,19C34.241,19,20,26.179,20,36c0,4.849,7.099,11,15.077,11C43.502,47,56,39.861,56,30 C56,21.316,46.982,19,41.654,19z" />
  <path fill="#1f212b" d="M75,63.5c-0.276,0-0.5-0.224-0.5-0.5c0-5.124,3.439-9.675,8.364-11.067 c0.263-0.073,0.542,0.079,0.617,0.346c0.075,0.266-0.079,0.542-0.345,0.617C78.64,54.167,75.5,58.322,75.5,63 C75.5,63.276,75.276,63.5,75,63.5z" />
  <path fill="#1f212b" d="M88.842,52.884c-0.043,0-0.086-0.005-0.129-0.017C87.8,52.623,86.887,52.5,86,52.5 c-0.276,0-0.5-0.224-0.5-0.5s0.224-0.5,0.5-0.5c0.974,0,1.974,0.135,2.971,0.4c0.267,0.071,0.425,0.346,0.354,0.612 C89.265,52.736,89.063,52.884,88.842,52.884z" />
  <path fill="#1f212b" d="M40,68.5c-4.95,0-9.333-3.151-10.906-7.841c-0.088-0.262,0.053-0.545,0.315-0.633 c0.262-0.092,0.545,0.053,0.633,0.314C31.479,64.623,35.48,67.5,40,67.5c2.354,0,4.584-0.771,6.45-2.228 c0.217-0.171,0.531-0.131,0.702,0.087c0.17,0.218,0.131,0.531-0.086,0.702C45.022,67.656,42.579,68.5,40,68.5z" />
  <path fill="#1f212b" d="M52.514,40.651c-0.103,0-0.207-0.031-0.296-0.098C50.396,39.21,48.246,38.5,46,38.5 c-0.276,0-0.5-0.224-0.5-0.5s0.224-0.5,0.5-0.5c2.461,0,4.816,0.777,6.812,2.249c0.222,0.164,0.27,0.477,0.105,0.699 C52.819,40.581,52.667,40.651,52.514,40.651z" />
  <path fill="#1f212b" d="M35.077,48.5c-0.276,0-0.514-0.225-0.514-0.501c0-0.285,0.25-0.503,0.528-0.499 c0.271,0.016,0.486,0.243,0.479,0.514C35.562,48.284,35.348,48.5,35.077,48.5z" />
  <path fill="#1f212b" d="M35.051,48.499c-0.015,0-0.03-0.001-0.045-0.002c-0.275-0.025-0.478-0.269-0.453-0.543 c0.426-4.707,3.766-8.734,8.312-10.021c0.264-0.075,0.542,0.079,0.617,0.346c0.075,0.266-0.079,0.542-0.345,0.617 c-4.15,1.174-7.199,4.851-7.588,9.148C35.525,48.304,35.307,48.499,35.051,48.499z" />
  <path fill="#1f212b" d="M49.5,25.013c-0.094,0-0.188-0.026-0.272-0.081c-1.241-0.809-2.858-1.378-4.807-1.694 c-0.272-0.044-0.458-0.301-0.414-0.573c0.044-0.272,0.296-0.466,0.574-0.413c2.087,0.338,3.834,0.958,5.193,1.843 c0.231,0.15,0.297,0.461,0.146,0.691C49.823,24.933,49.663,25.013,49.5,25.013z" />
  <path fill="#1f212b" d="M23.953,34c-0.056,0-0.114-0.01-0.17-0.029c-0.26-0.094-0.394-0.381-0.3-0.641 C25.815,26.865,36.021,22,41.5,22c0.276,0,0.5,0.224,0.5,0.5S41.776,23,41.5,23c-5.203,0-14.88,4.582-17.077,10.67 C24.35,33.873,24.158,34,23.953,34z" />
</svg>