<svg xmlns="http://www.w3.org/2000/svg" viewBox="0 0 48 48" width="500px" height="500px" baseProfile="basic">
  <path fill="#f5bc00" d="M21.599,6.361C22.312,5.86,22.7,4.787,23.47,4.424c0.785-0.368,1.846,0.031,2.677-0.189 c0.836-0.225,1.555-1.098,2.411-1.18c0.857-0.072,1.723,0.664,2.58,0.736c0.851,0.077,1.83-0.506,2.666-0.281 c0.821,0.22,1.387,1.206,2.172,1.574c0.765,0.358,1.881,0.148,2.595,0.649c0.693,0.49,0.882,1.609,1.499,2.227 s1.733,0.807,2.223,1.502c0.5,0.715,0.291,1.834,0.653,2.606c0.362,0.782,1.346,1.349,1.565,2.171 c0.224,0.838-0.357,1.819-0.285,2.677c0.076,0.853,0.811,1.722,0.739,2.58c-0.082,0.858-0.948,1.584-1.178,2.416 c-0.219,0.833,0.178,1.895-0.189,2.682c-0.367,0.777-1.433,1.16-1.932,1.875c-0.26,0.46-0.452,0.956-0.571,1.471 c-0.122,0.381-0.666,0.929-0.666,0.929L19.122,7.564c-0.135,0.113,0.451-0.477,1.008-0.631C20.85,6.734,21.139,6.621,21.599,6.361z" />
  <path fill="#fadb00" d="M22.647,11.088c3.948-3.944,10.423-3.991,14.359-0.035c3.926,3.947,3.858,10.377-0.069,14.325 L22.647,11.088z" />
  <path fill="#f5bc00" d="M13.653,14.375c0.713-0.5,1.1-1.57,1.87-1.932c0.785-0.367,1.844,0.031,2.675-0.189 c0.835-0.224,1.554-1.096,2.41-1.178c0.856-0.071,1.722,0.663,2.578,0.734c0.851,0.076,1.829-0.505,2.664-0.28 c0.82,0.219,1.386,1.203,2.17,1.57c0.764,0.357,1.88,0.148,2.593,0.647c0.693,0.489,0.881,1.606,1.498,2.223 c0.616,0.617,1.732,0.805,2.221,1.499c0.499,0.714,0.29,1.83,0.652,2.6c0.362,0.78,1.345,1.346,1.564,2.167 c0.224,0.836-0.357,1.815-0.285,2.671c0.076,0.851,0.81,1.718,0.739,2.574c-0.082,0.856-0.948,1.58-1.177,2.411 c-0.219,0.831,0.178,1.891-0.188,2.676c-0.367,0.775-1.432,1.157-1.931,1.871c-0.26,0.459-0.452,0.954-0.571,1.468 c-0.122,0.38-0.683,0.924-0.683,0.924L11.163,15.53c0,0,0.583-0.463,1.023-0.584C12.905,14.747,13.194,14.635,13.653,14.375z" />
  <path fill="#fadb00" d="M14.701,19.07c3.946-3.935,10.415-3.961,14.347-0.013c3.924,3.939,3.841,10.348-0.083,14.287 L14.701,19.07z" />
  <path fill="#f5bc00" d="M5.427,22.6c0.713-0.5,1.1-1.57,1.87-1.932c0.785-0.367,1.844,0.031,2.675-0.189 c0.835-0.224,1.554-1.096,2.41-1.178c0.856-0.071,1.722,0.663,2.578,0.734c0.851,0.076,1.829-0.505,2.664-0.28 c0.82,0.219,1.386,1.203,2.17,1.57c0.764,0.357,1.88,0.148,2.593,0.647c0.693,0.489,0.881,1.606,1.498,2.223 c0.616,0.617,1.732,0.805,2.221,1.499c0.499,0.714,0.29,1.83,0.652,2.6c0.362,0.78,1.345,1.346,1.564,2.167 c0.224,0.836-0.357,1.815-0.285,2.671c0.076,0.851,0.81,1.718,0.739,2.574c-0.082,0.856-0.948,1.58-1.177,2.411 c-0.219,0.831,0.178,1.891-0.188,2.676c-0.367,0.775-1.432,1.157-1.931,1.871c-0.26,0.459-0.452,0.954-0.571,1.468 c-0.122,0.38-0.683,0.924-0.683,0.924L2.937,23.755c0,0,0.583-0.463,1.023-0.584C4.679,22.973,4.968,22.86,5.427,22.6z" />
  <path fill="#fadb00" d="M6.476,27.296c3.946-3.935,10.415-3.961,14.347-0.013c3.924,3.939,3.841,10.348-0.083,14.287 L6.476,27.296z" />
  <path fill="#eb7900" d="M36.548,22.235c-0.219-0.821-1.202-1.387-1.564-2.167c-0.362-0.77-0.153-1.886-0.652-2.6 c-0.489-0.693-1.605-0.882-2.221-1.499c-0.616-0.617-0.805-1.733-1.498-2.223c-0.713-0.5-1.829-0.291-2.593-0.647 c-0.785-0.367-1.35-1.351-2.17-1.57c-0.776-0.208-1.674,0.272-2.48,0.281l12.894,12.894C36.282,23.898,36.755,23.007,36.548,22.235z" />
  <path fill="#eb7900" d="M28.322,30.461c-0.219-0.821-1.202-1.387-1.564-2.167c-0.362-0.77-0.153-1.886-0.652-2.6 c-0.489-0.693-1.605-0.882-2.221-1.499c-0.616-0.617-0.805-1.733-1.498-2.223c-0.713-0.5-1.829-0.291-2.593-0.647 c-0.785-0.367-1.35-1.351-2.17-1.57c-0.625-0.168-1.33,0.115-2.002,0.236l12.463,12.47C28.208,31.789,28.49,31.085,28.322,30.461z" />
</svg>