<svg xmlns="http://www.w3.org/2000/svg" viewBox="0 0 100 100" width="500px" height="500px" baseProfile="basic">
  <path fill="#6474a6" d="M62.75,74.552v4h-30v-4h28.86c0.04,0,0.07,0.02,0.11,0.02s0.08-0.02,0.12-0.02H62.75z M11.8,42.552 c0.34,4.62,2.91,23.8,22.09,30h27.72c19.18-6.2,21.75-25.38,22.09-30H11.8z M75.9,57.302c-2.55,4.36-6.05,7.79-10.41,10.19 c-0.07,0.04-0.16,0.06-0.24,0.06c-0.17,0-0.35-0.1-0.44-0.26c-0.13-0.24-0.04-0.55,0.2-0.68c4.19-2.31,7.57-5.61,10.02-9.81 c0.14-0.24,0.45-0.32,0.69-0.18C75.96,56.762,76.04,57.062,75.9,57.302z M78.26,52.222c-0.37,1.04-0.8,2.07-1.28,3.05 c-0.08,0.18-0.26,0.28-0.45,0.28c-0.07,0-0.15-0.02-0.22-0.05c-0.24-0.12-0.35-0.42-0.23-0.67c0.46-0.95,0.88-1.94,1.24-2.95 c0.1-0.26,0.38-0.39,0.64-0.3S78.36,51.962,78.26,52.222z" />
  <path fill="#1f212b" d="M75.9,57.302c-2.55,4.36-6.05,7.79-10.41,10.19c-0.07,0.04-0.16,0.06-0.24,0.06 c-0.17,0-0.35-0.1-0.44-0.26c-0.13-0.24-0.04-0.55,0.2-0.68c4.19-2.31,7.57-5.61,10.02-9.81c0.14-0.24,0.45-0.32,0.69-0.18 C75.96,56.762,76.04,57.062,75.9,57.302z M78.26,52.222c-0.37,1.04-0.8,2.07-1.28,3.05c-0.08,0.18-0.26,0.28-0.45,0.28 c-0.07,0-0.15-0.02-0.22-0.05c-0.24-0.12-0.35-0.42-0.23-0.67c0.46-0.95,0.88-1.94,1.24-2.95c0.1-0.26,0.38-0.39,0.64-0.3 S78.36,51.962,78.26,52.222z" />
  <path fill="#1f212b" d="M84.75,40.552h-3c0-0.009-0.002-0.017-0.002-0.026h-1c0,0.009,0.002,0.017,0.002,0.026H14.83 c-0.001-0.009-0.001-0.017-0.002-0.026h-1.01c0.001,0.009,0,0.017,0.002,0.026h-3.07c-0.27,0-0.52,0.1-0.71,0.29 c-0.19,0.19-0.29,0.45-0.29,0.71c0,0.25,0.35,23.55,21,31.98c0,0.01,0,0.01,0,0.02v6c0,0.55,0.45,1,1,1h32c0.55,0,1-0.45,1-1v-6.03 c20.65-8.42,21-31.72,21-31.97c0-0.26-0.1-0.52-0.29-0.71C85.27,40.652,85.02,40.552,84.75,40.552z M62.75,78.552h-30v-4h28.86 c0.04,0,0.07,0.02,0.11,0.02s0.08-0.02,0.12-0.02h0.91V78.552z M61.61,72.552H33.89c-19.18-6.2-21.75-25.38-22.09-30h71.9 C83.36,47.172,80.79,66.352,61.61,72.552z" />
  <path fill="#1f212b" d="M72.75,42.058c-0.04,0-0.08-0.005-0.121-0.015c-2.295-0.572-4.926-1.061-7.821-1.452 c-0.273-0.036-0.465-0.288-0.428-0.563c0.036-0.273,0.285-0.474,0.563-0.428c2.931,0.396,5.599,0.891,7.929,1.472 c0.268,0.067,0.431,0.338,0.364,0.606C73.179,41.906,72.975,42.058,72.75,42.058z" />
  <path fill="#4a5397" d="M84.75,41.526c0-2.087-3.696-3.987-9.75-5.412l-7-1.285c-5.818-0.824-12.775-1.303-20.25-1.303 c-20.435,0-37,3.582-37,8c0,1.268,1.37,2.466,3.798,3.531c3.755-3.466,17.195-6.031,33.202-6.031s29.447,2.565,33.202,6.031 C83.38,43.992,84.75,42.794,84.75,41.526z" />
  <path fill="#1f212b" d="M80.755,46.235l-0.48-0.443C77.169,42.926,65,40.025,47.75,40.025s-29.419,2.9-32.524,5.767 l-0.48,0.443l-0.599-0.263c-2.917-1.279-4.396-2.775-4.396-4.447c0-5.908,19.116-9,38-9c7.273,0,14.324,0.454,20.391,1.313 l7.04,1.292c7.029,1.652,10.569,3.8,10.569,6.395c0,1.672-1.479,3.168-4.396,4.447L80.755,46.235z M47.75,38.025 c15.55,0,28.728,2.336,33.356,5.859c1.667-0.809,2.644-1.673,2.644-2.359c0-1.073-2.352-2.879-8.979-4.438l-6.952-1.275 c-5.935-0.84-12.889-1.287-20.069-1.287c-22.305,0-36,4.077-36,7c0,0.687,0.977,1.551,2.644,2.359 C19.022,40.361,32.2,38.025,47.75,38.025z" />
  <path fill="#b77748" d="M47.75,39.026c-16.007,0-29.447,2.565-33.202,6.031c6.034,2.647,18.631,4.469,33.202,4.469 s27.168-1.822,33.202-4.469C77.197,41.591,63.757,39.026,47.75,39.026z" />
  <polyline fill="#ceccbe" points="59.5,49.125 53.375,49.118 53.56,46.249" />
  <path fill="#1f212b" d="M59.5,49.625C59.5,49.625,59.5,49.625,59.5,49.625l-6.126-0.007c-0.138,0-0.27-0.058-0.364-0.158 c-0.094-0.101-0.143-0.236-0.134-0.374l0.185-2.869c0.017-0.275,0.256-0.503,0.531-0.467c0.275,0.018,0.484,0.256,0.467,0.531 l-0.15,2.338l5.593,0.006c0.275,0,0.499,0.225,0.499,0.501C60,49.401,59.775,49.625,59.5,49.625z" />
  <polygon fill="#fefdef" points="66.126,47.558 57.937,44.401 53.56,46.249 61.499,49.39" />
  <path fill="#1f212b" d="M61.499,49.89c-0.063,0-0.125-0.012-0.184-0.035l-7.939-3.141 c-0.189-0.074-0.314-0.256-0.316-0.459s0.118-0.388,0.306-0.467l4.378-1.849c0.118-0.05,0.253-0.053,0.374-0.006l8.188,3.157 c0.192,0.074,0.319,0.259,0.32,0.465s-0.124,0.391-0.316,0.467l-4.627,1.832C61.624,49.878,61.562,49.89,61.499,49.89z M54.881,46.234l6.618,2.617l3.253-1.288l-6.806-2.624L54.881,46.234z" />
  <polyline fill="#ceccbe" points="22.5,40.401 22.5,43.276 26.75,45.401 33.875,43.276 33.875,40.401" />
  <path fill="#1f212b" d="M26.75,45.9c-0.077,0-0.153-0.018-0.224-0.053l-4.25-2.125C22.107,43.638,22,43.465,22,43.275V40.4 c0-0.276,0.224-0.5,0.5-0.5s0.5,0.224,0.5,0.5v2.566l3.797,1.897l6.578-1.962V40.4c0-0.276,0.224-0.5,0.5-0.5s0.5,0.224,0.5,0.5 v2.875c0,0.221-0.146,0.416-0.357,0.479l-7.125,2.125C26.846,45.894,26.798,45.9,26.75,45.9z" />
  <polygon fill="#fefdef" points="22.5,40.401 29.625,38.276 33.875,40.401 27,42.526" />
  <path fill="#1f212b" d="M27,43.025c-0.073,0-0.146-0.016-0.214-0.048l-4.5-2.125c-0.187-0.089-0.301-0.283-0.285-0.49 c0.017-0.206,0.157-0.382,0.356-0.441l7.125-2.125c0.122-0.036,0.252-0.024,0.366,0.032l4.25,2.125 c0.183,0.092,0.291,0.284,0.274,0.488c-0.017,0.203-0.155,0.376-0.351,0.437l-6.875,2.125C27.1,43.018,27.05,43.025,27,43.025z M23.895,40.506l3.144,1.484l5.499-1.699l-2.959-1.479L23.895,40.506z" />
  <g>
    <ellipse cx="73.063" cy="45.838" fill="#70b570" rx="3.188" ry="1.438" />
    <path fill="#1f212b" d="M73.063,47.775c-2.103,0-3.688-0.833-3.688-1.938S70.96,43.9,73.063,43.9s3.688,0.833,3.688,1.938 S75.165,47.775,73.063,47.775z M73.063,44.9c-1.667,0-2.688,0.607-2.688,0.938s1.021,0.938,2.688,0.938s2.688-0.607,2.688-0.938 S74.729,44.9,73.063,44.9z" />
  </g>
  <g>
    <ellipse cx="37.438" cy="45.713" fill="#70b570" rx="3.188" ry="1.438" />
    <path fill="#1f212b" d="M37.438,47.65c-2.103,0-3.688-0.833-3.688-1.938s1.585-1.938,3.688-1.938s3.688,0.833,3.688,1.938 S39.54,47.65,37.438,47.65z M37.438,44.775c-1.667,0-2.688,0.607-2.688,0.938s1.021,0.938,2.688,0.938s2.688-0.607,2.688-0.938 S39.104,44.775,37.438,44.775z" />
  </g>
  <g>
    <ellipse cx="40.438" cy="40.688" fill="#70b570" rx="3.188" ry="1.438" />
    <path fill="#1f212b" d="M40.438,42.625c-2.103,0-3.688-0.833-3.688-1.938s1.585-1.938,3.688-1.938s3.688,0.833,3.688,1.938 S42.54,42.625,40.438,42.625z M40.438,39.75c-1.667,0-2.688,0.607-2.688,0.938s1.021,0.938,2.688,0.938s2.688-0.607,2.688-0.938 S42.104,39.75,40.438,39.75z" />
  </g>
  <g>
    <polyline fill="#ceccbe" points="43.25,38.625 43.25,41.625 47.125,44 54.5,42.875 54.5,39.75" />
    <path fill="#1f212b" d="M47.125,44.5c-0.092,0-0.183-0.025-0.262-0.073l-3.875-2.375c-0.147-0.092-0.238-0.253-0.238-0.427 v-3c0-0.276,0.224-0.5,0.5-0.5s0.5,0.224,0.5,0.5v2.72l3.48,2.134L54,42.445V39.75c0-0.276,0.224-0.5,0.5-0.5s0.5,0.224,0.5,0.5 v3.125c0,0.247-0.181,0.457-0.425,0.494L47.2,44.494C47.176,44.498,47.15,44.5,47.125,44.5z" />
    <g>
      <polygon fill="#fefdef" points="43.25,38.625 50.375,37.875 54.5,39.75 47,40.75" />
      <path fill="#1f212b" d="M47,41.25c-0.086,0-0.171-0.022-0.246-0.065l-3.75-2.125c-0.189-0.106-0.288-0.324-0.243-0.536 c0.044-0.213,0.221-0.373,0.437-0.396l7.125-0.75c0.088-0.01,0.178,0.005,0.26,0.042l4.125,1.875 c0.203,0.092,0.32,0.308,0.287,0.528c-0.032,0.221-0.207,0.393-0.428,0.423l-7.5,1C47.044,41.249,47.022,41.25,47,41.25z M44.854,38.959l2.247,1.273l5.607-0.748l-2.416-1.098L44.854,38.959z" />
    </g>
  </g>
  <g>
    <path fill="#b3b2c3" d="M90.807,16.443c-1.757-1.757-4.607-1.757-6.364,0L62.375,41.651l4,2.25l24.432-21.094 C92.564,21.049,92.564,18.2,90.807,16.443z" />
    <path fill="#1f212b" d="M66.375,44.4c-0.084,0-0.169-0.021-0.245-0.064l-4-2.25c-0.131-0.073-0.223-0.203-0.248-0.352 s0.018-0.3,0.117-0.413l22.068-25.208c1.971-1.975,5.145-1.974,7.094-0.024l0,0c1.948,1.949,1.948,5.122,0,7.071L66.702,44.279 C66.608,44.359,66.492,44.4,66.375,44.4z M63.157,41.517l3.157,1.775L90.48,22.428c1.532-1.534,1.532-4.072-0.026-5.632 c-1.561-1.559-4.099-1.559-5.657,0L63.157,41.517z" />
  </g>
  <path fill="#1f212b" d="M44.665,50.762c-24.678,0-31.62-5.487-31.927-5.741l1.268-1.546 c0.079,0.063,8.182,6.264,37.581,5.151c25.142-0.953,29.677-4.807,29.719-4.846l1.412,1.416c-0.438,0.451-5.03,4.441-31.055,5.428 C49.187,50.718,46.854,50.762,44.665,50.762z" />
</svg>