<svg xmlns="http://www.w3.org/2000/svg" viewBox="0 0 48 48" width="500px" height="500px">
  <path fill="#33691e" d="M18,40c0,0,2-8,5-13C23,27,23,40,18,40z" />
  <path fill="#439f47" d="M15.531,19.412c1.2,1.572,2.013,3.282,2.658,5.087c0.632,1.802,1.04,3.682,1.24,5.587 c0.148,1.905,0.179,3.835-0.07,5.736c-0.063,0.961-0.305,1.889-0.451,2.838c-0.202,0.935-0.47,1.854-0.705,2.784 c-0.148,0.588-0.746,0.945-1.334,0.797s-0.945-0.746-0.797-1.334c0.004-0.017,0.009-0.034,0.014-0.05l0.031-0.101 c0.262-0.855,0.562-1.704,0.799-2.569c0.18-0.875,0.461-1.738,0.564-2.627c0.33-1.766,0.394-3.563,0.355-5.356 c-0.091-1.791-0.378-3.576-0.882-5.303c-0.502-1.713-1.227-3.429-2.204-4.864l-0.027-0.04c-0.155-0.228-0.096-0.538,0.131-0.693 C15.074,19.152,15.371,19.203,15.531,19.412z" />
  <path fill="#439f47" d="M25.384,23.237c-0.395-2.051-0.962-4.037-1.605-5.974c-0.321-0.969-0.666-1.924-1.018-2.869 c-0.345-0.949-0.736-1.892-1.004-2.733c-0.541-1.749-0.671-3.616-0.286-5.462C21.863,4.364,22.713,2.547,24,1 c-1.677,1.131-3.031,2.823-3.825,4.8c-0.811,1.976-0.968,4.252-0.546,6.377c0.209,1.1,0.53,2.03,0.791,2.985 c0.271,0.954,0.53,1.904,0.763,2.855c0.467,1.901,0.847,3.807,1.057,5.708c0.415,3.785,0.244,7.603-1.187,10.834 c-1.011,2.355-2.656,4.326-4.696,5.905c0.769-1.538,1.564-3.141,2.177-4.818c1.038-2.685,1.708-5.577,1.769-8.489 c0.089-2.914-0.477-5.801-1.484-8.457c-0.27-0.659-0.548-1.312-0.833-1.958l-1.034-1.845c-0.178-0.303-0.333-0.617-0.528-0.908 l-0.615-0.853l-1.231-1.687c-0.026-0.036-0.074-0.049-0.115-0.029c-0.046,0.022-0.065,0.078-0.043,0.124l0.004,0.008l0.909,1.862 c0.314,0.611,0.608,1.228,0.839,1.873l0.741,1.899c0.178,0.656,0.362,1.304,0.554,1.947c0.652,2.605,0.882,5.272,0.597,7.875 c-0.288,2.607-1.108,5.116-2.209,7.516c-1.105,2.427-2.529,4.633-3.886,7.28c-0.012,0.024-0.026,0.053-0.037,0.077 c-0.382,0.848-0.004,1.844,0.844,2.227c0.014,0.343,0.098,0.688,0.281,1.007c0.607,1.06,1.958,1.427,3.018,0.82l0.024-0.014 c3.756-2.151,7.145-5.626,8.639-9.897C26.3,31.784,26.197,27.305,25.384,23.237z" />
  <path fill="#8bc34a" d="M14.794,43.029c0.066,0-0.119-0.063-0.203-0.124c-0.108-0.061-0.226-0.131-0.337-0.214 C12,41,14.116,38.741,14.441,37.164c0.357-1.72,0.625-3.466,0.792-5.266c0.156-1.787,0.181-3.673-0.188-5.578 c-0.362-1.918-1.207-3.688-2.074-5.227c-0.883-1.548-1.785-2.99-2.615-4.475c-0.788-1.398-1.362-2.801-1.502-4.297 c-0.13-1.483,0.22-3.004,0.979-4.422c0.771-1.406,1.895-2.706,3.216-3.808l0.008-0.006c0.033-0.028,0.047-0.075,0.03-0.118 c-0.021-0.054-0.082-0.08-0.135-0.059C11.3,4.552,9.775,5.606,8.588,7.047c-1.184,1.43-1.989,3.333-2.031,5.314 c-0.044,0.935,0.089,1.851,0.32,2.734c-0.392-0.407-0.8-0.794-1.232-1.14c-1.283-1.012-2.663-1.838-4.097-2.533 c-0.039-0.019-0.087-0.008-0.113,0.028c-0.029,0.04-0.021,0.097,0.02,0.127c1.275,0.939,2.507,1.929,3.562,3.056 c1.032,1.141,1.913,2.383,2.384,3.771c0.49,1.38,0.604,2.86,0.583,4.376c-0.004,1.517-0.145,3.081-0.254,4.667 c-0.21,3.175-0.442,6.44,0.168,9.816c0.297,1.672,0.798,3.372,1.737,4.958c0.464,0.792,1.044,1.548,1.764,2.207 c0.366,0.326,0.758,0.632,1.2,0.896c0.221,0.132,0.449,0.256,0.702,0.358c0.272,0.111,0.459,0.189,0.908,0.288 c0.812,0.162,1.603-0.364,1.765-1.177C16.133,43.982,15.607,43.192,14.794,43.029z M10.071,22.688 C10.043,22.386,10,22.08,9.957,21.775c0.127,0.242,0.262,0.49,0.385,0.73c0.767,1.493,1.406,2.9,1.648,4.4 c0.267,1.496,0.284,3.101,0.136,4.751c-0.142,2.032-0.439,4.102-0.768,6.183c-0.114-0.398-0.218-0.802-0.306-1.213 c-0.63-2.848-0.75-5.971-0.813-9.111C10.207,25.938,10.211,24.336,10.071,22.688z" />
  <path fill="#439f47" d="M44.364,32.736L33.997,22.448c-0.601-0.597-1.576-0.597-2.178,0l-11.001,10.92h23.545L44.364,32.736 L44.364,32.736z" />
  <path fill="#9ccc65" d="M17.636,33.368h22.273L29.543,23.079c-0.601-0.597-1.576-0.597-2.178,0l-9.729,9.657V33.368z" />
  <path fill="#8bc34a" d="M39.909,33.368H17.636v-0.632l2.545-2.526c1.273-1.263,6.472-1.131,8.686-2.388 c1.101-0.632,1.495-1.623,1.495-2.665c0-0.733-0.28-1.541-0.675-1.933L39.909,33.368z" />
  <path fill="#bcaaa4" d="M17.636,32C17.285,32,17,32.291,17,32.65v0.325c0,5.152,3.125,9.035,8,11.017L25.909,45h10.182 L37,43.992c4.875-1.982,8-5.865,8-11.017V32.65c0-0.359-0.285-0.65-0.636-0.65H17.636z" />
  <path fill="#795548" d="M25,44v2h12v-2H25z" />
</svg>