<svg xmlns="http://www.w3.org/2000/svg" viewBox="0 0 48 48" width="500px" height="500px">
  <linearGradient id="d4Vr5vtuTuICOt1tq0i~~a" x1="6.683" x2="15.349" y1="18.593" y2="21.078" gradientTransform="rotate(-19.999 6.105 26.439)" gradientUnits="userSpaceOnUse">
    <stop offset=".026" stop-color="#fc7158" />
    <stop offset=".145" stop-color="#ed624b" />
    <stop offset=".399" stop-color="#d34533" />
    <stop offset=".546" stop-color="#c93b2a" />
  </linearGradient>
  <path fill="url(#d4Vr5vtuTuICOt1tq0i~~a)" d="M6.536,9.131C5.402,8.278,3.797,8.966,3.58,10.368c-0.872,5.629,4.908,18.197,4.908,18.197 l4.96-3.341C11.699,18.651,8.438,10.561,6.536,9.131z" />
  <radialGradient id="d4Vr5vtuTuICOt1tq0i~~b" cx="18.777" cy="34.508" r="8.811" gradientTransform="matrix(.9691 .2465 -.175 .6882 6.62 6.132)" gradientUnits="userSpaceOnUse">
    <stop offset="0" stop-color="#ff9585" />
    <stop offset=".473" stop-color="#fc7258" />
    <stop offset=".593" stop-color="#f76d53" />
    <stop offset=".744" stop-color="#e95d46" />
    <stop offset=".91" stop-color="#d24430" />
    <stop offset="1" stop-color="#c23321" />
  </radialGradient>
  <path fill="url(#d4Vr5vtuTuICOt1tq0i~~b)" d="M16.406,30.899l-6.961,3.103c3.742,9.652,12.586,8.248,12.586,8.248l0.842-11.356 C22.873,30.894,18.179,29.584,16.406,30.899z" />
  <radialGradient id="d4Vr5vtuTuICOt1tq0i~~c" cx="19.959" cy="36.301" r="11.263" gradientTransform="matrix(.0951 -.9955 .4917 .047 .213 54.465)" gradientUnits="userSpaceOnUse">
    <stop offset="0" stop-color="#c23321" />
    <stop offset=".227" stop-color="#c83a27" stop-opacity=".773" />
    <stop offset=".558" stop-color="#db4e38" stop-opacity=".442" />
    <stop offset=".951" stop-color="#f86e54" stop-opacity=".049" />
    <stop offset="1" stop-color="#fc7258" stop-opacity="0" />
  </radialGradient>
  <path fill="url(#d4Vr5vtuTuICOt1tq0i~~c)" d="M16.406,30.899l-6.961,3.103c3.742,9.652,12.586,8.248,12.586,8.248l0.842-11.356 C22.873,30.894,18.179,29.584,16.406,30.899z" />
  <radialGradient id="d4Vr5vtuTuICOt1tq0i~~d" cx="12.899" cy="29.546" r="4.932" gradientTransform="matrix(.9524 -.3049 .2223 .6943 -5.953 12.967)" gradientUnits="userSpaceOnUse">
    <stop offset="0" stop-color="#ff9585" />
    <stop offset=".473" stop-color="#fc7258" />
    <stop offset=".593" stop-color="#f76d53" />
    <stop offset=".744" stop-color="#e95d46" />
    <stop offset=".91" stop-color="#d24430" />
    <stop offset="1" stop-color="#c23321" />
  </radialGradient>
  <path fill="url(#d4Vr5vtuTuICOt1tq0i~~d)" d="M14.917,26.625l-6.188,1.5c-1.604,3.042,1.22,7.049,1.22,7.049 c-0.087,0.008,2.106-1.908,3.223-2.627c1.359-0.875,3.274-1.544,3.274-1.544S16.879,28.875,14.917,26.625z" />
  <radialGradient id="d4Vr5vtuTuICOt1tq0i~~e" cx="11.292" cy="19.542" r="13.083" gradientTransform="matrix(-.0559 -.9984 .3177 -.0178 5.714 31.163)" gradientUnits="userSpaceOnUse">
    <stop offset=".045" stop-color="#ff8a70" />
    <stop offset=".628" stop-color="#fc7158" />
    <stop offset=".701" stop-color="#f76c53" />
    <stop offset=".793" stop-color="#e85c46" />
    <stop offset=".895" stop-color="#d14331" />
    <stop offset=".922" stop-color="#c93b2a" />
  </radialGradient>
  <path fill="url(#d4Vr5vtuTuICOt1tq0i~~e)" d="M15.361,27.187c1.083-6.958-1.87-16.181-3.168-18.176c-0.774-1.189-2.547-1.107-3.201,0.152 C5.5,15.875,8.424,28.829,8.424,28.829s1.675-1.017,3.519-1.483C13.482,26.957,15.361,27.187,15.361,27.187z" />
  <radialGradient id="d4Vr5vtuTuICOt1tq0i~~f" cx="25.196" cy="31.348" r="12.39" gradientUnits="userSpaceOnUse">
    <stop offset="0" stop-color="#ffe296" />
    <stop offset=".186" stop-color="#fedf93" />
    <stop offset=".328" stop-color="#fcd789" />
    <stop offset=".456" stop-color="#f8c979" />
    <stop offset=".576" stop-color="#f3b562" />
    <stop offset=".689" stop-color="#ec9b44" />
    <stop offset=".696" stop-color="#eb9942" />
    <stop offset=".787" stop-color="#e48b3b" />
    <stop offset=".93" stop-color="#d66d2b" />
  </radialGradient>
  <path fill="url(#d4Vr5vtuTuICOt1tq0i~~f)" d="M25.978,28.565c-3.87-1.272-8.059,0.407-7.663,7.35c0.22,3.855-0.08,4.787,1.076,6.586 c1.174,1.826,9.597,1.835,13.973-0.179C37.487,40.425,38.761,37.413,39,35C39.526,29.689,25.978,28.565,25.978,28.565z" />
  <radialGradient id="d4Vr5vtuTuICOt1tq0i~~g" cx="31.13" cy="28.413" r="9.173" gradientUnits="userSpaceOnUse">
    <stop offset="0" stop-color="#ffe296" />
    <stop offset=".196" stop-color="#fedf93" />
    <stop offset=".347" stop-color="#fcd689" />
    <stop offset=".482" stop-color="#f9c779" />
    <stop offset=".609" stop-color="#f4b262" />
    <stop offset=".728" stop-color="#ee9744" />
    <stop offset=".77" stop-color="#eb8c38" />
    <stop offset=".91" stop-color="#dc752f" />
    <stop offset="1" stop-color="#d66d2b" />
  </radialGradient>
  <path fill="url(#d4Vr5vtuTuICOt1tq0i~~g)" d="M30,25c0,0-4-1-5,3c-0.728,2.91,10.5,12,13.5,9c5-5,3.857-14,3.857-14L30,25z" />
  <radialGradient id="d4Vr5vtuTuICOt1tq0i~~h" cx="32.787" cy="15.209" r="12.546" fx="34.358" fy="13.864" gradientUnits="userSpaceOnUse">
    <stop offset="0" stop-color="#ffe296" />
    <stop offset=".186" stop-color="#fedf93" />
    <stop offset=".328" stop-color="#fcd789" />
    <stop offset=".456" stop-color="#f8c979" />
    <stop offset=".576" stop-color="#f3b562" />
    <stop offset=".689" stop-color="#ec9b44" />
    <stop offset=".696" stop-color="#eb9942" />
    <stop offset=".787" stop-color="#e48b3b" />
    <stop offset=".93" stop-color="#d66d2b" />
  </radialGradient>
  <path fill="url(#d4Vr5vtuTuICOt1tq0i~~h)" d="M29.138,19.837c0,0-3.657,2.348-0.554,5.455C31.131,27.843,41.5,27.5,42.5,22.5 S40.261,8.757,30.632,5.199C24.7,3.007,29.138,19.837,29.138,19.837z" />
  <radialGradient id="d4Vr5vtuTuICOt1tq0i~~i" cx="26.643" cy="12.566" r="12.978" gradientTransform="matrix(1 0 0 .9815 0 .076)" gradientUnits="userSpaceOnUse">
    <stop offset="0" stop-color="#ffe296" />
    <stop offset=".166" stop-color="#fedf93" />
    <stop offset=".294" stop-color="#fcd789" />
    <stop offset=".409" stop-color="#f8c979" />
    <stop offset=".516" stop-color="#f3b562" />
    <stop offset=".617" stop-color="#ec9b44" />
    <stop offset=".623" stop-color="#eb9942" />
    <stop offset=".743" stop-color="#e48b3b" />
    <stop offset=".93" stop-color="#d66d2b" />
  </radialGradient>
  <path fill="url(#d4Vr5vtuTuICOt1tq0i~~i)" d="M26.663,4.087c-4.074-0.294-7.598-0.018-9.489,8.642c-0.752,3.443,0.183,7.541,4.963,9.716 c5.553,2.526,12.986-3.813,12.205-11.706C34.093,8.211,32.826,4.531,26.663,4.087z" />
  <radialGradient id="d4Vr5vtuTuICOt1tq0i~~j" cx="11.865" cy="26.948" r="9.924" fx="9.903" fy="26.979" gradientTransform="matrix(-.0665 -.9978 1.2062 -.0804 -19.85 40.953)" gradientUnits="userSpaceOnUse">
    <stop offset=".132" stop-color="#bf1b06" />
    <stop offset=".508" stop-color="#e44e37" stop-opacity=".385" />
    <stop offset=".743" stop-color="#fc7158" stop-opacity="0" />
  </radialGradient>
  <path fill="url(#d4Vr5vtuTuICOt1tq0i~~j)" d="M15.361,27.187c1.083-6.958-1.87-16.181-3.168-18.176 c-0.774-1.189-2.547-1.107-3.201,0.152C5.5,15.875,8.424,28.829,8.424,28.829s1.675-1.017,3.519-1.483 C13.482,26.957,15.361,27.187,15.361,27.187z" opacity=".5" />
  <radialGradient id="d4Vr5vtuTuICOt1tq0i~~k" cx="27.474" cy="10.668" r="2.708" fx="27.813" fy="10.378" gradientUnits="userSpaceOnUse">
    <stop offset="0" stop-color="#ffe296" />
    <stop offset=".301" stop-color="#fedf93" />
    <stop offset=".535" stop-color="#fbd58a" />
    <stop offset=".745" stop-color="#f5c57b" />
    <stop offset=".941" stop-color="#edae66" />
    <stop offset="1" stop-color="#eaa55e" />
  </radialGradient>
  <path fill="url(#d4Vr5vtuTuICOt1tq0i~~k)" d="M26.141,9.826c0.815-0.986,2.25-1.598,2.772-0.424c0.522,1.174-0.222,3.848-1.578,3.391 C25.978,12.337,25.66,10.408,26.141,9.826z" />
  <radialGradient id="d4Vr5vtuTuICOt1tq0i~~l" cx="34.222" cy="12.406" r="4.248" fx="34.754" fy="11.95" gradientUnits="userSpaceOnUse">
    <stop offset="0" stop-color="#ffe296" />
    <stop offset=".232" stop-color="#fedf93" />
    <stop offset=".412" stop-color="#fad58a" />
    <stop offset=".574" stop-color="#f5c57b" />
    <stop offset=".725" stop-color="#edad66" />
    <stop offset=".868" stop-color="#e2904b" />
    <stop offset="1" stop-color="#d66d2b" />
  </radialGradient>
  <path fill="url(#d4Vr5vtuTuICOt1tq0i~~l)" d="M32.141,12.451c1.309-2.11,1.91-3.326,2.863-3.082c0.952,0.245,2.327,1.83,1.197,3.815 c-1.197,2.103-2.152,3.228-3.424,2.495C31.996,15.229,31.646,13.249,32.141,12.451z" />
  <radialGradient id="d4Vr5vtuTuICOt1tq0i~~m" cx="33.926" cy="19.795" r="2.474" fx="34.236" fy="19.529" gradientTransform="scale(-1) rotate(-56.634 -34.665 62.052)" gradientUnits="userSpaceOnUse">
    <stop offset=".233" stop-color="#ffe195" />
    <stop offset=".384" stop-color="#fddc91" />
    <stop offset=".553" stop-color="#f8cf84" />
    <stop offset=".731" stop-color="#f0b970" />
    <stop offset=".914" stop-color="#e59953" />
    <stop offset="1" stop-color="#df8843" />
  </radialGradient>
  <path fill="url(#d4Vr5vtuTuICOt1tq0i~~m)" d="M32.386,17.328c1.274,0.125,1.878,0.701,1.545,2.41s-3.578,1.211-3.124-0.012 S31.84,17.274,32.386,17.328z" />
  <radialGradient id="d4Vr5vtuTuICOt1tq0i~~n" cx="17.453" cy="36.191" r="25.956" gradientTransform="matrix(.0799 -.9968 .3655 .0293 2.829 52.528)" gradientUnits="userSpaceOnUse">
    <stop offset="0" stop-color="#d1570a" />
    <stop offset=".171" stop-color="#d7691c" stop-opacity=".829" />
    <stop offset=".515" stop-color="#e6974b" stop-opacity=".485" />
    <stop offset=".995" stop-color="#ffe195" stop-opacity=".005" />
    <stop offset="1" stop-color="#ffe296" stop-opacity="0" />
  </radialGradient>
  <path fill="url(#d4Vr5vtuTuICOt1tq0i~~n)" d="M25.978,28.565c-3.87-1.272-8.059,0.407-7.663,7.35c0.22,3.855-0.08,4.787,1.076,6.586 c1.174,1.826,9.597,1.835,13.973-0.179C37.487,40.425,38.761,37.413,39,35C39.526,29.689,25.978,28.565,25.978,28.565z" />
  <radialGradient id="d4Vr5vtuTuICOt1tq0i~~o" cx="22.904" cy="38.62" r="3.77" gradientUnits="userSpaceOnUse">
    <stop offset="0" stop-color="#f6c87f" />
    <stop offset=".146" stop-color="#f4c37a" />
    <stop offset=".326" stop-color="#efb46c" />
    <stop offset=".524" stop-color="#e69b55" />
    <stop offset=".734" stop-color="#da7835" />
    <stop offset=".791" stop-color="#d66d2b" />
  </radialGradient>
  <path fill="url(#d4Vr5vtuTuICOt1tq0i~~o)" d="M20.837,38.437c2.195-2.88,4.433-0.196,4.578,0.685c0.145,0.88-1.65,2.565-3.251,2.017 C20.378,40.527,20.013,39.518,20.837,38.437z" />
  <radialGradient id="d4Vr5vtuTuICOt1tq0i~~p" cx="30.484" cy="35.789" r="1.927" gradientTransform="matrix(.9468 -.3219 .1947 .5727 -5.346 25.106)" gradientUnits="userSpaceOnUse">
    <stop offset=".233" stop-color="#f3c177" />
    <stop offset=".398" stop-color="#efb56c" />
    <stop offset=".697" stop-color="#e3944e" />
    <stop offset="1" stop-color="#d66d2b" />
  </radialGradient>
  <path fill="url(#d4Vr5vtuTuICOt1tq0i~~p)" d="M29.401,35.674c0.95-1.895,2.431-0.63,2.2,0.482C31.408,37.086,28.61,37.253,29.401,35.674z" />
  <radialGradient id="d4Vr5vtuTuICOt1tq0i~~q" cx="37.598" cy="24.6" r="6.13" gradientTransform="matrix(.8791 -.4767 .4176 .7701 -5.727 23.577)" gradientUnits="userSpaceOnUse">
    <stop offset="0" stop-color="#f9cf86" />
    <stop offset=".14" stop-color="#f7ca81" />
    <stop offset=".312" stop-color="#f2bb73" />
    <stop offset=".502" stop-color="#e9a25c" />
    <stop offset=".702" stop-color="#dc7f3c" />
    <stop offset=".791" stop-color="#d66d2b" />
  </radialGradient>
  <path fill="url(#d4Vr5vtuTuICOt1tq0i~~q)" d="M37.519,25.691c2.217-0.607,2.85-2.785,3.44-2.417c1.487,0.929,0.903,4.454-0.929,5.291 c-2.401,1.096-6.701,0.264-5.761-1.378C35.063,25.801,36.37,26.005,37.519,25.691z" />
  <radialGradient id="d4Vr5vtuTuICOt1tq0i~~r" cx="28.878" cy="32.568" r="3.822" gradientUnits="userSpaceOnUse">
    <stop offset=".233" stop-color="#ffe195" />
    <stop offset=".36" stop-color="#fbd58a" />
    <stop offset=".592" stop-color="#efb46c" />
    <stop offset=".9" stop-color="#dd803c" />
    <stop offset="1" stop-color="#d66d2b" />
  </radialGradient>
  <path fill="url(#d4Vr5vtuTuICOt1tq0i~~r)" d="M27.335,33.057c0.61-2.516,4.433-0.196,4.578,0.685c0.145,0.88-2.325,2.576-3.573,1.432 C27.331,34.249,27.014,34.377,27.335,33.057z" />
  <radialGradient id="d4Vr5vtuTuICOt1tq0i~~s" cx="23.83" cy="17.931" r="5.365" gradientTransform="matrix(1.1469 0 0 .9815 -2.722 .076)" gradientUnits="userSpaceOnUse">
    <stop offset="0" stop-color="#fedc90" />
    <stop offset=".245" stop-color="#fdd98d" />
    <stop offset=".444" stop-color="#facf83" />
    <stop offset=".626" stop-color="#f4be72" />
    <stop offset=".798" stop-color="#eca65b" />
    <stop offset=".962" stop-color="#e2873d" />
    <stop offset="1" stop-color="#df7f35" />
  </radialGradient>
  <path fill="url(#d4Vr5vtuTuICOt1tq0i~~s)" d="M27.277,17.104c-2.64-1.467-7.475-0.414-7.98,0.222c-2.301,2.898,1.08,5.278,3.37,6.118 c2.734,1.003,4.673-0.183,5.114-1.452C28.338,20.396,29.228,18.189,27.277,17.104z" />
  <radialGradient id="d4Vr5vtuTuICOt1tq0i~~t" cx="34.857" cy="36.476" r="2.797" gradientTransform="matrix(.9468 -.3219 .1947 .5727 -5.247 26.808)" gradientUnits="userSpaceOnUse">
    <stop offset="0" stop-color="#e79e58" />
    <stop offset=".308" stop-color="#e69b55" />
    <stop offset=".544" stop-color="#e3914c" />
    <stop offset=".755" stop-color="#dd813d" />
    <stop offset=".93" stop-color="#d66d2b" />
  </radialGradient>
  <path fill="url(#d4Vr5vtuTuICOt1tq0i~~t)" d="M32.639,36.15c1.352-1.87,3.596-2.206,4.509-0.593c0.913,1.613-1.839,3.308-3.431,2.721 C32.127,37.692,31.838,37.259,32.639,36.15z" />
  <radialGradient id="d4Vr5vtuTuICOt1tq0i~~u" cx="29.132" cy="26.504" r="1.858" gradientUnits="userSpaceOnUse">
    <stop offset=".153" stop-color="#ffe296" />
    <stop offset=".317" stop-color="#fddd92" />
    <stop offset=".51" stop-color="#f8cf85" />
    <stop offset=".717" stop-color="#f0b76f" />
    <stop offset=".933" stop-color="#e59751" />
    <stop offset=".959" stop-color="#e3924d" />
  </radialGradient>
  <path fill="url(#d4Vr5vtuTuICOt1tq0i~~u)" d="M28.901,25.67c-1.419-0.131-1.552,1.969-0.776,2.682s2.211-0.526,1.983-1.341 C29.879,26.196,29.912,25.763,28.901,25.67z" />
  <radialGradient id="d4Vr5vtuTuICOt1tq0i~~v" cx="40.959" cy="14.977" r="3.326" fx="41.376" fy="14.62" gradientUnits="userSpaceOnUse">
    <stop offset="0" stop-color="#ffe296" />
    <stop offset=".215" stop-color="#fedf93" />
    <stop offset=".381" stop-color="#fad58a" />
    <stop offset=".53" stop-color="#f5c57b" />
    <stop offset=".67" stop-color="#edad66" />
    <stop offset=".803" stop-color="#e2904b" />
    <stop offset=".925" stop-color="#d66d2b" />
  </radialGradient>
  <path fill="url(#d4Vr5vtuTuICOt1tq0i~~v)" d="M39.411,13.118c0.537-2.15,3.687,1.859,3.262,3.864c-0.425,2.005-2.577-0.204-2.969-1.056 C39.314,15.075,39.127,14.257,39.411,13.118z" />
</svg>